<svg xmlns="http://www.w3.org/2000/svg" xmlns:xlink="http://www.w3.org/1999/xlink" contentStyleType="text/css" height="627px" preserveAspectRatio="none" style="width:2689px;height:627px;background:#FFFFFF;" version="1.1" viewBox="0 0 2689 627" width="2689px" zoomAndPan="magnify"><defs/><g><!--class DeviceController--><g id="elem_DeviceController"><rect codeLine="2" fill="#F1F1F1" height="130.4414" id="DeviceController" rx="2.5" ry="2.5" style="stroke:#181818;stroke-width:0.5;" width="367" x="7" y="121.57"/><ellipse cx="129.25" cy="137.57" fill="#ADD1B2" rx="11" ry="11" style="stroke:#181818;stroke-width:1.0;"/><path d="M131.7231,143.7131 Q131.1421,144.0119 130.5029,144.1613 Q129.8638,144.3107 129.1582,144.3107 Q126.6514,144.3107 125.3315,142.6589 Q124.0117,141.007 124.0117,137.8859 Q124.0117,134.7565 125.3315,133.1047 Q126.6514,131.4528 129.1582,131.4528 Q129.8638,131.4528 130.5112,131.6022 Q131.1587,131.7516 131.7231,132.0505 L131.7231,134.7731 Q131.0923,134.1921 130.4988,133.9223 Q129.9053,133.6525 129.2744,133.6525 Q127.9297,133.6525 127.2449,134.7192 Q126.5601,135.7858 126.5601,137.8859 Q126.5601,139.9777 127.2449,141.0444 Q127.9297,142.111 129.2744,142.111 Q129.9053,142.111 130.4988,141.8412 Q131.0923,141.5715 131.7231,140.9904 Z " fill="#000000"/><text fill="#000000" font-family="sans-serif" font-size="14" lengthAdjust="spacing" textLength="114" x="149.75" y="142.861">DeviceController</text><line style="stroke:#181818;stroke-width:0.5;" x1="8" x2="373" y1="153.57" y2="153.57"/><line style="stroke:#181818;stroke-width:0.5;" x1="8" x2="373" y1="161.57" y2="161.57"/><ellipse cx="18" cy="175.3141" fill="#84BE84" rx="3" ry="3" style="stroke:#038048;stroke-width:1.0;"/><text fill="#000000" font-family="sans-serif" font-size="14" lengthAdjust="spacing" textLength="256" x="27" y="179.1052">deleteDeviceByUuid(String uuid): void</text><ellipse cx="18" cy="191.8024" fill="#84BE84" rx="3" ry="3" style="stroke:#038048;stroke-width:1.0;"/><text fill="#000000" font-family="sans-serif" font-size="14" lengthAdjust="spacing" textLength="328" x="27" y="195.5934">checkIfDeviceExistsByUuid(String uuid): Boolean</text><ellipse cx="18" cy="208.2907" fill="#84BE84" rx="3" ry="3" style="stroke:#038048;stroke-width:1.0;"/><text fill="#000000" font-family="sans-serif" font-size="14" lengthAdjust="spacing" textLength="251" x="27" y="212.0817">getDeviceByUuid(String uuid): Device</text><ellipse cx="18" cy="224.779" fill="#84BE84" rx="3" ry="3" style="stroke:#038048;stroke-width:1.0;"/><text fill="#000000" font-family="sans-serif" font-size="14" lengthAdjust="spacing" textLength="341" x="27" y="228.57">getAllDevices(Boolean withRecords): List&lt;Device&gt;</text><ellipse cx="18" cy="241.2673" fill="#84BE84" rx="3" ry="3" style="stroke:#038048;stroke-width:1.0;"/><text fill="#000000" font-family="sans-serif" font-size="14" lengthAdjust="spacing" textLength="302" x="27" y="245.0583">upsertDevice(DeviceRequest request): String</text></g><!--class DeviceService--><g id="elem_DeviceService"><rect codeLine="10" fill="#F1F1F1" height="179.9063" id="DeviceService" rx="2.5" ry="2.5" style="stroke:#181818;stroke-width:0.5;" width="452" x="409.5" y="96.84"/><ellipse cx="585.25" cy="112.84" fill="#ADD1B2" rx="11" ry="11" style="stroke:#181818;stroke-width:1.0;"/><path d="M587.7231,118.9831 Q587.1421,119.2819 586.5029,119.4313 Q585.8638,119.5807 585.1582,119.5807 Q582.6514,119.5807 581.3315,117.9289 Q580.0117,116.277 580.0117,113.1559 Q580.0117,110.0265 581.3315,108.3747 Q582.6514,106.7228 585.1582,106.7228 Q585.8638,106.7228 586.5112,106.8722 Q587.1587,107.0216 587.7231,107.3205 L587.7231,110.0431 Q587.0923,109.4621 586.4988,109.1923 Q585.9053,108.9225 585.2744,108.9225 Q583.9297,108.9225 583.2449,109.9892 Q582.5601,111.0558 582.5601,113.1559 Q582.5601,115.2477 583.2449,116.3144 Q583.9297,117.381 585.2744,117.381 Q585.9053,117.381 586.4988,117.1112 Q587.0923,116.8415 587.7231,116.2604 Z " fill="#000000"/><text fill="#000000" font-family="sans-serif" font-size="14" lengthAdjust="spacing" textLength="92" x="605.75" y="118.131">DeviceService</text><line style="stroke:#181818;stroke-width:0.5;" x1="410.5" x2="860.5" y1="128.84" y2="128.84"/><line style="stroke:#181818;stroke-width:0.5;" x1="410.5" x2="860.5" y1="136.84" y2="136.84"/><ellipse cx="420.5" cy="150.5841" fill="#84BE84" rx="3" ry="3" style="stroke:#038048;stroke-width:1.0;"/><text fill="#000000" font-family="sans-serif" font-size="14" lengthAdjust="spacing" textLength="193" x="429.5" y="154.3752">deleteById(String uuid): void</text><ellipse cx="420.5" cy="167.0724" fill="#84BE84" rx="3" ry="3" style="stroke:#038048;stroke-width:1.0;"/><text fill="#000000" font-family="sans-serif" font-size="14" lengthAdjust="spacing" textLength="284" x="429.5" y="170.8634">checkIfExistsByUuid(String uuid): Boolean</text><ellipse cx="420.5" cy="183.5607" fill="#84BE84" rx="3" ry="3" style="stroke:#038048;stroke-width:1.0;"/><text fill="#000000" font-family="sans-serif" font-size="14" lengthAdjust="spacing" textLength="207" x="429.5" y="187.3517">getByUuid(String uuid): Device</text><ellipse cx="420.5" cy="200.049" fill="#84BE84" rx="3" ry="3" style="stroke:#038048;stroke-width:1.0;"/><text fill="#000000" font-family="sans-serif" font-size="14" lengthAdjust="spacing" textLength="147" x="429.5" y="203.84">getAll(): List&lt;Device&gt;</text><ellipse cx="420.5" cy="216.5373" fill="#84BE84" rx="3" ry="3" style="stroke:#038048;stroke-width:1.0;"/><text fill="#000000" font-family="sans-serif" font-size="14" lengthAdjust="spacing" textLength="316" x="429.5" y="220.3283">getAllByType(String deviceType): List&lt;Device&gt;</text><ellipse cx="420.5" cy="233.0255" fill="#84BE84" rx="3" ry="3" style="stroke:#038048;stroke-width:1.0;"/><text fill="#000000" font-family="sans-serif" font-size="14" lengthAdjust="spacing" textLength="426" x="429.5" y="236.8166">getAllByKeyboardLayout(String keyboardLayout): List&lt;Device&gt;</text><ellipse cx="420.5" cy="249.5138" fill="#84BE84" rx="3" ry="3" style="stroke:#038048;stroke-width:1.0;"/><text fill="#000000" font-family="sans-serif" font-size="14" lengthAdjust="spacing" textLength="232" x="429.5" y="253.3048">getAllWithRecords(): List&lt;Device&gt;</text><ellipse cx="420.5" cy="266.0021" fill="#84BE84" rx="3" ry="3" style="stroke:#038048;stroke-width:1.0;"/><text fill="#000000" font-family="sans-serif" font-size="14" lengthAdjust="spacing" textLength="272" x="429.5" y="269.7931">upsert(DeviceRequest request): Boolean</text></g><!--class RecordService--><g id="elem_RecordService"><rect codeLine="21" fill="#F1F1F1" height="76.9766" id="RecordService" rx="2.5" ry="2.5" style="stroke:#181818;stroke-width:0.5;" width="394" x="896.5" y="148.3"/><ellipse cx="1041.25" cy="164.3" fill="#ADD1B2" rx="11" ry="11" style="stroke:#181818;stroke-width:1.0;"/><path d="M1043.7231,170.4431 Q1043.1421,170.7419 1042.5029,170.8913 Q1041.8638,171.0407 1041.1582,171.0407 Q1038.6514,171.0407 1037.3315,169.3889 Q1036.0117,167.737 1036.0117,164.6159 Q1036.0117,161.4865 1037.3315,159.8347 Q1038.6514,158.1828 1041.1582,158.1828 Q1041.8638,158.1828 1042.5112,158.3322 Q1043.1587,158.4816 1043.7231,158.7805 L1043.7231,161.5031 Q1043.0923,160.9221 1042.4988,160.6523 Q1041.9053,160.3825 1041.2744,160.3825 Q1039.9297,160.3825 1039.2449,161.4492 Q1038.5601,162.5158 1038.5601,164.6159 Q1038.5601,166.7077 1039.2449,167.7744 Q1039.9297,168.841 1041.2744,168.841 Q1041.9053,168.841 1042.4988,168.5712 Q1043.0923,168.3015 1043.7231,167.7204 Z " fill="#000000"/><text fill="#000000" font-family="sans-serif" font-size="14" lengthAdjust="spacing" textLength="96" x="1061.75" y="169.591">RecordService</text><line style="stroke:#181818;stroke-width:0.5;" x1="897.5" x2="1289.5" y1="180.3" y2="180.3"/><ellipse cx="907.5" cy="214.5324" fill="#84BE84" rx="3" ry="3" style="stroke:#038048;stroke-width:1.0;"/><text fill="#000000" font-family="sans-serif" font-size="14" lengthAdjust="spacing" textLength="368" x="916.5" y="218.3234">checkIfDeviceHasRecordsByUuid(String uuid): Boolean</text><line style="stroke:#181818;stroke-width:1.0;stroke-dasharray:1.0,2.0;" x1="897.5" x2="1042" y1="196.5441" y2="196.5441"/><text fill="#000000" font-family="sans-serif" font-size="14" lengthAdjust="spacing" textLength="103" x="1042" y="201.3352">Other methods</text><line style="stroke:#181818;stroke-width:1.0;stroke-dasharray:1.0,2.0;" x1="1145" x2="1289.5" y1="196.5441" y2="196.5441"/></g><!--class DeviceRepository--><g id="elem_DeviceRepository"><rect codeLine="26" fill="#F1F1F1" height="97.4648" id="DeviceRepository" rx="2.5" ry="2.5" style="stroke:#181818;stroke-width:0.5;" width="406" x="1325.5" y="138.06"/><ellipse cx="1465.75" cy="154.06" fill="#ADD1B2" rx="11" ry="11" style="stroke:#181818;stroke-width:1.0;"/><path d="M1468.2231,160.2031 Q1467.6421,160.5019 1467.0029,160.6513 Q1466.3638,160.8007 1465.6582,160.8007 Q1463.1514,160.8007 1461.8315,159.1489 Q1460.5117,157.497 1460.5117,154.3759 Q1460.5117,151.2465 1461.8315,149.5947 Q1463.1514,147.9428 1465.6582,147.9428 Q1466.3638,147.9428 1467.0112,148.0922 Q1467.6587,148.2416 1468.2231,148.5405 L1468.2231,151.2631 Q1467.5923,150.6821 1466.9988,150.4123 Q1466.4053,150.1425 1465.7744,150.1425 Q1464.4297,150.1425 1463.7449,151.2092 Q1463.0601,152.2758 1463.0601,154.3759 Q1463.0601,156.4677 1463.7449,157.5344 Q1464.4297,158.601 1465.7744,158.601 Q1466.4053,158.601 1466.9988,158.3312 Q1467.5923,158.0615 1468.2231,157.4804 Z " fill="#000000"/><text fill="#000000" font-family="sans-serif" font-size="14" lengthAdjust="spacing" textLength="117" x="1486.25" y="159.351">DeviceRepository</text><line style="stroke:#181818;stroke-width:0.5;" x1="1326.5" x2="1730.5" y1="170.06" y2="170.06"/><line style="stroke:#181818;stroke-width:0.5;" x1="1326.5" x2="1730.5" y1="178.06" y2="178.06"/><ellipse cx="1336.5" cy="191.8041" fill="#84BE84" rx="3" ry="3" style="stroke:#038048;stroke-width:1.0;"/><text fill="#000000" font-family="sans-serif" font-size="14" lengthAdjust="spacing" textLength="212" x="1345.5" y="195.5952">findByUuid(String uuid): Device</text><ellipse cx="1336.5" cy="208.2924" fill="#84BE84" rx="3" ry="3" style="stroke:#038048;stroke-width:1.0;"/><text fill="#000000" font-family="sans-serif" font-size="14" lengthAdjust="spacing" textLength="347" x="1345.5" y="212.0834">findByDeviceType(String deviceType): List&lt;Device&gt;</text><ellipse cx="1336.5" cy="224.7807" fill="#84BE84" rx="3" ry="3" style="stroke:#038048;stroke-width:1.0;"/><text fill="#000000" font-family="sans-serif" font-size="14" lengthAdjust="spacing" textLength="380" x="1345.5" y="228.5717">findByKeyboardLayout(String deviceType): List&lt;Device&gt;</text></g><!--class Device--><g id="elem_Device"><rect codeLine="32" fill="#F1F1F1" height="254.3477" id="Device" rx="2.5" ry="2.5" style="stroke:#181818;stroke-width:0.5;" width="224" x="523.5" y="365.72"/><ellipse cx="609.25" cy="381.72" fill="#ADD1B2" rx="11" ry="11" style="stroke:#181818;stroke-width:1.0;"/><path d="M612.8643,388.22 L605.1445,388.22 L605.1445,375.8269 L612.8643,375.8269 L612.8643,377.9851 L607.5933,377.9851 L607.5933,380.658 L612.3662,380.658 L612.3662,382.8162 L607.5933,382.8162 L607.5933,386.0618 L612.8643,386.0618 Z " fill="#000000"/><text fill="#000000" font-family="sans-serif" font-size="14" lengthAdjust="spacing" textLength="44" x="629.75" y="387.011">Device</text><line style="stroke:#181818;stroke-width:0.5;" x1="524.5" x2="746.5" y1="397.72" y2="397.72"/><rect fill="none" height="6" style="stroke:#C82930;stroke-width:1.0;" width="6" x="531.5" y="408.4641"/><text fill="#000000" font-family="sans-serif" font-size="14" lengthAdjust="spacing" textLength="80" x="543.5" y="415.2552">uuid: String</text><rect fill="none" height="6" style="stroke:#C82930;stroke-width:1.0;" width="6" x="531.5" y="424.9524"/><text fill="#000000" font-family="sans-serif" font-size="14" lengthAdjust="spacing" textLength="106" x="543.5" y="431.7434">cpuDesc: String</text><rect fill="none" height="6" style="stroke:#C82930;stroke-width:1.0;" width="6" x="531.5" y="441.4407"/><text fill="#000000" font-family="sans-serif" font-size="14" lengthAdjust="spacing" textLength="131" x="543.5" y="448.2317">deviceName: String</text><rect fill="none" height="6" style="stroke:#C82930;stroke-width:1.0;" width="6" x="531.5" y="457.929"/><text fill="#000000" font-family="sans-serif" font-size="14" lengthAdjust="spacing" textLength="125" x="543.5" y="464.72">deviceType: String</text><rect fill="none" height="6" style="stroke:#C82930;stroke-width:1.0;" width="6" x="531.5" y="474.4173"/><text fill="#000000" font-family="sans-serif" font-size="14" lengthAdjust="spacing" textLength="158" x="543.5" y="481.2083">keyboardLayout: String</text><rect fill="none" height="6" style="stroke:#C82930;stroke-width:1.0;" width="6" x="531.5" y="490.9055"/><text fill="#000000" font-family="sans-serif" font-size="14" lengthAdjust="spacing" textLength="104" x="543.5" y="497.6966">osName: String</text><rect fill="none" height="6" style="stroke:#C82930;stroke-width:1.0;" width="6" x="531.5" y="507.3938"/><text fill="#000000" font-family="sans-serif" font-size="14" lengthAdjust="spacing" textLength="117" x="543.5" y="514.1848">username: String</text><rect fill="none" height="6" style="stroke:#C82930;stroke-width:1.0;" width="6" x="531.5" y="523.8821"/><text fill="#000000" font-family="sans-serif" font-size="14" lengthAdjust="spacing" textLength="198" x="543.5" y="530.6731">registeredOn: LocalDateTime</text><rect fill="none" height="6" style="stroke:#C82930;stroke-width:1.0;" width="6" x="531.5" y="540.3704"/><text fill="#000000" font-family="sans-serif" font-size="14" lengthAdjust="spacing" textLength="178" x="543.5" y="547.1614">lastAccess: LocalDateTime</text><text fill="#000000" font-family="sans-serif" font-size="14" lengthAdjust="spacing" textLength="4" x="543.5" y="563.6497">&#160;</text><line style="stroke:#181818;stroke-width:1.0;stroke-dasharray:1.0,2.0;" x1="524.5" x2="611" y1="578.847" y2="578.847"/><text fill="#000000" font-family="sans-serif" font-size="14" lengthAdjust="spacing" textLength="49" x="611" y="583.638">Getters</text><line style="stroke:#181818;stroke-width:1.0;stroke-dasharray:1.0,2.0;" x1="660" x2="746.5" y1="578.847" y2="578.847"/><line style="stroke:#181818;stroke-width:1.0;stroke-dasharray:1.0,2.0;" x1="524.5" x2="612" y1="603.5794" y2="603.5794"/><text fill="#000000" font-family="sans-serif" font-size="14" lengthAdjust="spacing" textLength="47" x="612" y="608.3704">Setters</text><line style="stroke:#181818;stroke-width:1.0;stroke-dasharray:1.0,2.0;" x1="659" x2="746.5" y1="603.5794" y2="603.5794"/></g><!--class DeviceRequest--><g id="elem_DeviceRequest"><rect codeLine="47" fill="#F1F1F1" height="237.8594" id="DeviceRequest" rx="2.5" ry="2.5" style="stroke:#181818;stroke-width:0.5;" width="224" x="1766.5" y="67.86"/><ellipse cx="1824.75" cy="83.86" fill="#ADD1B2" rx="11" ry="11" style="stroke:#181818;stroke-width:1.0;"/><path d="M1827.2231,90.0031 Q1826.6421,90.3019 1826.0029,90.4513 Q1825.3638,90.6007 1824.6582,90.6007 Q1822.1514,90.6007 1820.8315,88.9489 Q1819.5117,87.297 1819.5117,84.1759 Q1819.5117,81.0465 1820.8315,79.3947 Q1822.1514,77.7428 1824.6582,77.7428 Q1825.3638,77.7428 1826.0112,77.8922 Q1826.6587,78.0416 1827.2231,78.3405 L1827.2231,81.0631 Q1826.5923,80.4821 1825.9988,80.2123 Q1825.4053,79.9425 1824.7744,79.9425 Q1823.4297,79.9425 1822.7449,81.0092 Q1822.0601,82.0758 1822.0601,84.1759 Q1822.0601,86.2677 1822.7449,87.3344 Q1823.4297,88.401 1824.7744,88.401 Q1825.4053,88.401 1825.9988,88.1312 Q1826.5923,87.8615 1827.2231,87.2804 Z " fill="#000000"/><text fill="#000000" font-family="sans-serif" font-size="14" lengthAdjust="spacing" textLength="99" x="1845.25" y="89.151">DeviceRequest</text><line style="stroke:#181818;stroke-width:0.5;" x1="1767.5" x2="1989.5" y1="99.86" y2="99.86"/><rect fill="none" height="6" style="stroke:#C82930;stroke-width:1.0;" width="6" x="1774.5" y="110.6041"/><text fill="#000000" font-family="sans-serif" font-size="14" lengthAdjust="spacing" textLength="80" x="1786.5" y="117.3952">uuid: String</text><rect fill="none" height="6" style="stroke:#C82930;stroke-width:1.0;" width="6" x="1774.5" y="127.0924"/><text fill="#000000" font-family="sans-serif" font-size="14" lengthAdjust="spacing" textLength="106" x="1786.5" y="133.8834">cpuDesc: String</text><rect fill="none" height="6" style="stroke:#C82930;stroke-width:1.0;" width="6" x="1774.5" y="143.5807"/><text fill="#000000" font-family="sans-serif" font-size="14" lengthAdjust="spacing" textLength="131" x="1786.5" y="150.3717">deviceName: String</text><rect fill="none" height="6" style="stroke:#C82930;stroke-width:1.0;" width="6" x="1774.5" y="160.069"/><text fill="#000000" font-family="sans-serif" font-size="14" lengthAdjust="spacing" textLength="125" x="1786.5" y="166.86">deviceType: String</text><rect fill="none" height="6" style="stroke:#C82930;stroke-width:1.0;" width="6" x="1774.5" y="176.5573"/><text fill="#000000" font-family="sans-serif" font-size="14" lengthAdjust="spacing" textLength="158" x="1786.5" y="183.3483">keyboardLayout: String</text><rect fill="none" height="6" style="stroke:#C82930;stroke-width:1.0;" width="6" x="1774.5" y="193.0455"/><text fill="#000000" font-family="sans-serif" font-size="14" lengthAdjust="spacing" textLength="104" x="1786.5" y="199.8366">osName: String</text><rect fill="none" height="6" style="stroke:#C82930;stroke-width:1.0;" width="6" x="1774.5" y="209.5338"/><text fill="#000000" font-family="sans-serif" font-size="14" lengthAdjust="spacing" textLength="117" x="1786.5" y="216.3248">username: String</text><rect fill="none" height="6" style="stroke:#C82930;stroke-width:1.0;" width="6" x="1774.5" y="226.0221"/><text fill="#000000" font-family="sans-serif" font-size="14" lengthAdjust="spacing" textLength="198" x="1786.5" y="232.8131">registeredOn: LocalDateTime</text><text fill="#000000" font-family="sans-serif" font-size="14" lengthAdjust="spacing" textLength="4" x="1786.5" y="249.3014">&#160;</text><line style="stroke:#181818;stroke-width:1.0;stroke-dasharray:1.0,2.0;" x1="1767.5" x2="1854" y1="264.4987" y2="264.4987"/><text fill="#000000" font-family="sans-serif" font-size="14" lengthAdjust="spacing" textLength="49" x="1854" y="269.2897">Getters</text><line style="stroke:#181818;stroke-width:1.0;stroke-dasharray:1.0,2.0;" x1="1903" x2="1989.5" y1="264.4987" y2="264.4987"/><line style="stroke:#181818;stroke-width:1.0;stroke-dasharray:1.0,2.0;" x1="1767.5" x2="1855" y1="289.2311" y2="289.2311"/><text fill="#000000" font-family="sans-serif" font-size="14" lengthAdjust="spacing" textLength="47" x="1855" y="294.0221">Setters</text><line style="stroke:#181818;stroke-width:1.0;stroke-dasharray:1.0,2.0;" x1="1902" x2="1989.5" y1="289.2311" y2="289.2311"/></g><!--class AesCrypt--><g id="elem_AesCrypt"><rect codeLine="61" fill="#F1F1F1" height="139.0625" id="AesCrypt" rx="2.5" ry="2.5" style="stroke:#181818;stroke-width:0.5;" width="251" x="2431" y="117.26"/><ellipse cx="2521.25" cy="137.5705" fill="#ADD1B2" rx="11" ry="11" style="stroke:#181818;stroke-width:1.0;"/><path d="M2523.7231,143.7136 Q2523.1421,144.0124 2522.5029,144.1619 Q2521.8638,144.3113 2521.1582,144.3113 Q2518.6514,144.3113 2517.3315,142.6594 Q2516.0117,141.0076 2516.0117,137.8865 Q2516.0117,134.7571 2517.3315,133.1052 Q2518.6514,131.4534 2521.1582,131.4534 Q2521.8638,131.4534 2522.5112,131.6028 Q2523.1587,131.7522 2523.7231,132.051 L2523.7231,134.7737 Q2523.0923,134.1926 2522.4988,133.9228 Q2521.9053,133.6531 2521.2744,133.6531 Q2519.9297,133.6531 2519.2449,134.7197 Q2518.5601,135.7864 2518.5601,137.8865 Q2518.5601,139.9783 2519.2449,141.0449 Q2519.9297,142.1116 2521.2744,142.1116 Q2521.9053,142.1116 2522.4988,141.8418 Q2523.0923,141.572 2523.7231,140.991 Z " fill="#000000"/><text fill="#000000" font-family="sans-serif" font-size="12" font-style="italic" lengthAdjust="spacing" textLength="42" x="2551.75" y="133.8616">&#171;static&#187;</text><text fill="#000000" font-family="sans-serif" font-size="14" lengthAdjust="spacing" textLength="62" x="2541.75" y="149.928">AesCrypt</text><line style="stroke:#181818;stroke-width:0.5;" x1="2432" x2="2681" y1="157.8811" y2="157.8811"/><rect fill="none" height="6" style="stroke:#C82930;stroke-width:1.0;" width="6" x="2439" y="168.6252"/><text fill="#000000" font-family="sans-serif" font-size="14" lengthAdjust="spacing" textLength="131" x="2451" y="175.4163">ALGORITHM: String</text><rect fill="none" height="6" style="stroke:#C82930;stroke-width:1.0;" width="6" x="2439" y="185.1135"/><text fill="#000000" font-family="sans-serif" font-size="14" lengthAdjust="spacing" textLength="179" x="2451" y="191.9045">TRANSFORMATION: String</text><rect fill="none" height="6" style="stroke:#C82930;stroke-width:1.0;" width="6" x="2439" y="201.6018"/><text fill="#000000" font-family="sans-serif" font-size="14" lengthAdjust="spacing" textLength="75" x="2451" y="208.3928">KEY: String</text><line style="stroke:#181818;stroke-width:0.5;" x1="2432" x2="2681" y1="215.3459" y2="215.3459"/><ellipse cx="2442" cy="229.0901" fill="#84BE84" rx="3" ry="3" style="stroke:#038048;stroke-width:1.0;"/><text fill="#000000" font-family="sans-serif" font-size="14" lengthAdjust="spacing" textLength="216" x="2451" y="232.8811">encrypt(String plaintext): String</text><ellipse cx="2442" cy="245.5784" fill="#84BE84" rx="3" ry="3" style="stroke:#038048;stroke-width:1.0;"/><text fill="#000000" font-family="sans-serif" font-size="14" lengthAdjust="spacing" textLength="225" x="2451" y="249.3694">decrypt(String ciphertext): String</text></g><!--class DateUtils--><g id="elem_DateUtils"><rect codeLine="70" fill="#F1F1F1" height="89.5977" id="DateUtils" rx="2.5" ry="2.5" style="stroke:#181818;stroke-width:0.5;" width="370" x="2025.5" y="141.99"/><ellipse cx="2175.75" cy="162.3005" fill="#ADD1B2" rx="11" ry="11" style="stroke:#181818;stroke-width:1.0;"/><path d="M2178.2231,168.4436 Q2177.6421,168.7424 2177.0029,168.8919 Q2176.3638,169.0413 2175.6582,169.0413 Q2173.1514,169.0413 2171.8315,167.3894 Q2170.5117,165.7376 2170.5117,162.6165 Q2170.5117,159.4871 2171.8315,157.8352 Q2173.1514,156.1834 2175.6582,156.1834 Q2176.3638,156.1834 2177.0112,156.3328 Q2177.6587,156.4822 2178.2231,156.781 L2178.2231,159.5037 Q2177.5923,158.9226 2176.9988,158.6528 Q2176.4053,158.3831 2175.7744,158.3831 Q2174.4297,158.3831 2173.7449,159.4497 Q2173.0601,160.5164 2173.0601,162.6165 Q2173.0601,164.7083 2173.7449,165.7749 Q2174.4297,166.8416 2175.7744,166.8416 Q2176.4053,166.8416 2176.9988,166.5718 Q2177.5923,166.302 2178.2231,165.721 Z " fill="#000000"/><text fill="#000000" font-family="sans-serif" font-size="12" font-style="italic" lengthAdjust="spacing" textLength="42" x="2205.75" y="158.5916">&#171;static&#187;</text><text fill="#000000" font-family="sans-serif" font-size="14" lengthAdjust="spacing" textLength="61" x="2196.25" y="174.658">DateUtils</text><line style="stroke:#181818;stroke-width:0.5;" x1="2026.5" x2="2394.5" y1="182.6111" y2="182.6111"/><line style="stroke:#181818;stroke-width:0.5;" x1="2026.5" x2="2394.5" y1="190.6111" y2="190.6111"/><text fill="#000000" font-family="sans-serif" font-size="14" lengthAdjust="spacing" textLength="358" x="2031.5" y="208.1463">dateTimeToString(LocalDateTime timestamp): String</text><text fill="#000000" font-family="sans-serif" font-size="14" lengthAdjust="spacing" textLength="346" x="2031.5" y="224.6345">stringToDateTime(String datetime): LocalDateTime</text></g><!--link DeviceController to DeviceRequest--><g id="link_DeviceController_DeviceRequest"><path codeLine="75" d="M262.46,121.44 C302.49,89.53 355.04,54.5 409,37.86 C479.24,16.2 1664.21,9.46 1732,37.86 C1749.39,45.15 1761.0906,51.8646 1776.1306,63.9346 " fill="none" id="DeviceController-to-DeviceRequest" style="stroke:#181818;stroke-width:1.0;"/><polygon fill="#181818" points="1780.81,67.69,1776.2944,58.9373,1776.9105,64.5605,1771.2873,65.1766,1780.81,67.69" style="stroke:#181818;stroke-width:1.0;"/></g><!--link DeviceController to DeviceService--><g id="link_DeviceController_DeviceService"><path codeLine="76" d="M374.32,186.79 C385.89,186.79 391.45,186.79 403.01,186.79 " fill="none" id="DeviceController-to-DeviceService" style="stroke:#181818;stroke-width:1.0;"/><polygon fill="#181818" points="409.01,186.79,400.01,182.79,404.01,186.79,400.01,190.79,409.01,186.79" style="stroke:#181818;stroke-width:1.0;"/></g><!--link DeviceService to DeviceRepository--><g id="link_DeviceService_DeviceRepository"><path codeLine="77" d="M763.42,96.5 C804.2,72.61 850.79,50.1 897,37.86 C981.42,15.51 1206.05,13.8 1290,37.86 C1357.81,57.3 1420.3198,98.5617 1466.0298,134.0317 " fill="none" id="DeviceService-to-DeviceRepository" style="stroke:#181818;stroke-width:1.0;"/><polygon fill="#181818" points="1470.77,137.71,1466.1119,129.0323,1466.8198,134.6447,1461.2074,135.3527,1470.77,137.71" style="stroke:#181818;stroke-width:1.0;"/></g><!--link DeviceService to RecordService--><g id="link_DeviceService_RecordService"><path codeLine="78" d="M861.82,186.79 C873.28,186.79 878.74,186.79 890.21,186.79 " fill="none" id="DeviceService-to-RecordService" style="stroke:#181818;stroke-width:1.0;"/><polygon fill="#181818" points="896.21,186.79,887.21,182.79,891.21,186.79,887.21,190.79,896.21,186.79" style="stroke:#181818;stroke-width:1.0;"/></g><!--link DeviceController to Device--><g id="link_DeviceController_Device"><path codeLine="80" d="M285.15,252.47 C354.81,300.08 444.836,361.6051 518.336,411.8251 " fill="none" id="DeviceController-to-Device" style="stroke:#181818;stroke-width:1.0;stroke-dasharray:7.0,7.0;"/><polygon fill="#181818" points="523.29,415.21,518.1156,406.8299,519.1616,412.3892,513.6024,413.4353,523.29,415.21" style="stroke:#181818;stroke-width:1.0;"/></g><!--link DeviceService to Device--><g id="link_DeviceService_Device"><path codeLine="81" d="M635.5,276.98 C635.5,304.67 635.5,329.74 635.5,359.46 " fill="none" id="DeviceService-to-Device" style="stroke:#181818;stroke-width:1.0;stroke-dasharray:7.0,7.0;"/><polygon fill="#181818" points="635.5,365.46,639.5,356.46,635.5,360.46,631.5,356.46,635.5,365.46" style="stroke:#181818;stroke-width:1.0;"/></g><!--link DeviceRepository to Device--><g id="link_DeviceRepository_Device"><path codeLine="82" d="M1448.68,235.88 C1407.55,259.23 1355.96,286.35 1307.5,305.72 C1116.68,381.99 889.3105,437.6836 753.8205,467.4236 " fill="none" id="DeviceRepository-to-Device" style="stroke:#181818;stroke-width:1.0;stroke-dasharray:7.0,7.0;"/><polygon fill="#181818" points="747.96,468.71,757.6083,470.6874,752.8437,467.638,755.8931,462.8735,747.96,468.71" style="stroke:#181818;stroke-width:1.0;"/></g><!--link DeviceRequest to AesCrypt--><g id="link_DeviceRequest_AesCrypt"><path codeLine="84" d="M1976.19,67.69 C1991.23,55.62 2007.61,45.15 2025,37.86 C2101.04,6 2319.25,7.74 2396,37.86 C2437.4,54.11 2470.4169,82.2051 2498.4869,112.7051 " fill="none" id="DeviceRequest-to-AesCrypt" style="stroke:#181818;stroke-width:1.0;"/><polygon fill="#181818" points="2502.55,117.12,2499.3986,107.789,2499.1641,113.4409,2493.5121,113.2065,2502.55,117.12" style="stroke:#181818;stroke-width:1.0;"/></g><!--link DeviceRequest to DateUtils--><g id="link_DeviceRequest_DateUtils"><path codeLine="85" d="M1990.68,186.79 C2002.13,186.79 2007.58,186.79 2019.03,186.79 " fill="none" id="DeviceRequest-to-DateUtils" style="stroke:#181818;stroke-width:1.0;"/><polygon fill="#181818" points="2025.03,186.79,2016.03,182.79,2020.03,186.79,2016.03,190.79,2025.03,186.79" style="stroke:#181818;stroke-width:1.0;"/></g><!--SRC=[tLN1RgCm4Btp5JvILSq7hA98fEcsKTCW4QhL7bapJQmIJEsXMxJQVzyXDWG3fUrrSuXXvhsPyPknuLcYDLl1g-1mBNDKCij0iJyUezybIo431EDULe-bIFqTAf7lMKdF5z_OgnIfnV83yEVram7Vl0cDUfIob3A39BUiFU14UECwGuCiCoRjsp3ijy1315ogL1DXGsdd1hAmjBBGe6mItomHl9IWaIcp4i-azVvw7kyeiWDLBpqvbjNwOnc-8i1dj-wFRz0ubrLS5T04IK-8sZBDkOVgbqnKkaagMMB3VdQiKn5-dDNtf-H_L_X6Z5Pv4yrLVZPZ8HveBe-01vbgCemDtLsYRIsJklUQ744XjK2fghRFJo9FFswAGQrQfJ-hlU6DA_y-bwg670LMjWXRxDMfj7Q0ZOaNvGeqxrbDx6roX557dRJdSEUWvvHw95H9pSw7PWLxsWieICESzYLvagqIX5WSmIAe8HXmEjYwxsycu1QG8hIz9ylkR1dqrCpP_wBHrpG8G5-hga0sdsjCKF35ebKYsDo6qJg-U-XbZwDWk_iUHWz1l0wtFUVzpK_7OWSPSbwdQMQto1AH8xnrxjFcsdHmN1HqbbtWkN-qvKSKcHuMdrerOcb8lgCHG_eZnh5mq-lJOomRN7lIwBscNFIrfb86tyEhXJjO4mXxStdk5wGJeBbjXWZdwXkfOZPhelIu0qVdJkluFFTmKCPcKeQUjW_UFm00]--></g></svg>