<svg xmlns="http://www.w3.org/2000/svg" xmlns:xlink="http://www.w3.org/1999/xlink" xmlns:lucid="lucid" width="1402.2" height="340"><g transform="translate(-858 -820)" lucid:page-tab-id="MdxL_cNJ~2za"><path d="M880 991.12a6 6 0 0 1 6-6h247.65a6 6 0 0 1 6 6v94.8a6 6 0 0 1-6 6H886a6 6 0 0 1-6-6z" stroke="#5e5e5e" stroke-width="4" fill="#fff"/><use xlink:href="#a" transform="matrix(1,0,0,1,892,997.1238390092878) translate(63.77777777777782 49.19444444444443)"/><path d="M1898.62 991.12a6 6 0 0 1 6-6h247.65a6 6 0 0 1 6 6v94.8a6 6 0 0 1-6 6h-247.65a6 6 0 0 1-6-6z" stroke="#5e5e5e" stroke-width="4" fill="#fff"/><use xlink:href="#b" transform="matrix(1,0,0,1,1910.6228148682999,997.1238390092878) translate(60.81481481481486 49.19444444444443)"/><path d="M1514 940.14a10.04 10.04 0 0 1 10.3 0l159.46 95.3a3.6 3.6 0 0 1 0 6.17l-159.47 95.32a10.04 10.04 0 0 1-10.3 0l-159.48-95.3a3.6 3.6 0 0 1 0-6.17z" stroke="#5e5e5e" stroke-width="4" fill="#fff"/><use xlink:href="#c" transform="matrix(1,0,0,1,1354.3654146942167,942.0588235294117) translate(119.12228395061732 100.81944444444443)"/><path d="M1143.65 1038.53h205.1" stroke="#5e5e5e" stroke-width="4" fill="none"/><path d="M1143.7 1040.5h-2.05v-3.95h2.05zM1350.88 1037.38l-.12 1.15.12 1.15.26.82h-2.43v-3.95h2.44z" stroke="#5e5e5e" stroke-width=".05" fill="#5e5e5e"/><path d="M1689.5 1038.53h205.12" stroke="#5e5e5e" stroke-width="4" fill="none"/><path d="M1689.56 1040.5h-2.43l.26-.82.1-1.15-.1-1.15-.27-.83h2.43zM1896.62 1040.5h-2.05v-3.95h2.05z" stroke="#5e5e5e" stroke-width=".05" fill="#5e5e5e"/><path d="M1007.53 982.12v-52.9V905.95" stroke="#5e5e5e" stroke-width="2" fill="none"/><path d="M1008.5 983.12h-1.95v-1.02h1.95z" stroke="#5e5e5e" stroke-width=".05" fill="#5e5e5e"/><path d="M1022.54 891.3c0 8.28-6.72 15-15 15-8.3 0-15-6.72-15-15 0-8.3 6.7-15 15-15 8.28 0 15 6.7 15 15z" stroke="#5e5e5e" stroke-width="2" fill="#fff"/><path d="M948.17 846a6 6 0 0 1 6-6h107.3a6 6 0 0 1 6 6v23.3a6 6 0 0 1-6 6h-107.3a6 6 0 0 1-6-6z" fill="none"/><use xlink:href="#d" transform="matrix(1,0,0,1,948.1744942761529,840) translate(30.6604938271605 24.888888888888886)"/><path d="M1941.05 982.12v-76.16" stroke="#5e5e5e" stroke-width="2" fill="none"/><path d="M1942.02 983.12h-1.95v-1.02h1.95z" stroke="#5e5e5e" stroke-width=".05" fill="#5e5e5e"/><path d="M1956.05 891.3c0 8.28-6.72 15-15 15-8.28 0-15-6.72-15-15 0-8.3 6.72-15 15-15 8.28 0 15 6.7 15 15z" stroke="#5e5e5e" stroke-width="2" fill="#fff"/><path d="M2114.92 982.12v-76.16" stroke="#5e5e5e" stroke-width="2" fill="none"/><path d="M2115.9 983.12h-1.96v-1.02h1.95z" stroke="#5e5e5e" stroke-width=".05" fill="#5e5e5e"/><path d="M2129.92 891.3c0 8.28-6.72 15-15 15-8.3 0-15-6.72-15-15 0-8.3 6.7-15 15-15 8.28 0 15 6.7 15 15z" stroke="#5e5e5e" stroke-width="2" fill="#fff"/><path d="M1898.62 846a6 6 0 0 1 6-6h73.22a6 6 0 0 1 6 6v23.3a6 6 0 0 1-6 6h-73.22a6 6 0 0 1-6-6z" fill="none"/><use xlink:href="#d" transform="matrix(1,0,0,1,1898.6228148682999,840) translate(13.6604938271605 24.888888888888886)"/><path d="M2021.92 846a6 6 0 0 1 6-6H2214a6 6 0 0 1 6 6v23.3a6 6 0 0 1-6 6h-186.08a6 6 0 0 1-6-6z" fill="none"/><use xlink:href="#e" transform="matrix(1,0,0,1,2021.9227791255607,840) translate(-18.722222222222214 24.888888888888886)"/><path d="M1886.57 937.06h275.12M1886.6 937.06h-1.03" stroke="#5e5e5e" stroke-width="2" fill="none"/><path d="M2191.36 937.06c0 8.28-6.72 15-15 15-8.3 0-15-6.72-15-15 0-8.28 6.7-15 15-15 8.28 0 15 6.72 15 15z" stroke="#5e5e5e" stroke-width="2" fill="#5e5e5e"/><path d="M1140 1062.64a6 6 0 0 1 6-6h88a6 6 0 0 1 6 6v23.3a6 6 0 0 1-6 6h-88a6 6 0 0 1-6-6z" fill="none"/><use xlink:href="#f" transform="matrix(1,0,0,1,1140,1056.6408668730649) translate(17.277777777777793 23.333333333333332)"/><use xlink:href="#g" transform="matrix(1,0,0,1,1140,1056.6408668730649) translate(55.72222222222222 23.333333333333332)"/><path d="M1798.27 1062.64a6 6 0 0 1 6-6h88a6 6 0 0 1 6 6v23.3a6 6 0 0 1-6 6h-88a6 6 0 0 1-6-6z" fill="none"/><use xlink:href="#h" transform="matrix(1,0,0,1,1798.2717676778666,1056.6408668730649) translate(19.462962962962976 23.333333333333332)"/><use xlink:href="#i" transform="matrix(1,0,0,1,1798.2717676778666,1056.6408668730649) translate(57.907407407407405 23.333333333333332)"/><defs><path d="M30-248c118-7 216 8 213 122C240-48 200 0 122 0H30v-248zM63-27c89 8 146-16 146-99s-60-101-146-95v194" id="j"/><path d="M100-194c63 0 86 42 84 106H49c0 40 14 67 53 68 26 1 43-12 49-29l28 8c-11 28-37 45-77 45C44 4 14-33 15-96c1-61 26-98 85-98zm52 81c6-60-76-77-97-28-3 7-6 17-6 28h103" id="k"/><path d="M108 0H70L1-190h34L89-25l56-165h34" id="l"/><path d="M24-231v-30h32v30H24zM24 0v-190h32V0H24" id="m"/><path d="M96-169c-40 0-48 33-48 73s9 75 48 75c24 0 41-14 43-38l32 2c-6 37-31 61-74 61-59 0-76-41-82-99-10-93 101-131 147-64 4 7 5 14 7 22l-32 3c-4-21-16-35-41-35" id="n"/><g id="a"><use transform="matrix(0.09876543209876536,0,0,0.09876543209876536,0,0)" xlink:href="#j"/><use transform="matrix(0.09876543209876536,0,0,0.09876543209876536,25.58024691358023,0)" xlink:href="#k"/><use transform="matrix(0.09876543209876536,0,0,0.09876543209876536,45.3333333333333,0)" xlink:href="#l"/><use transform="matrix(0.09876543209876536,0,0,0.09876543209876536,63.111111111111065,0)" xlink:href="#m"/><use transform="matrix(0.09876543209876536,0,0,0.09876543209876536,70.91358024691353,0)" xlink:href="#n"/><use transform="matrix(0.09876543209876536,0,0,0.09876543209876536,88.69135802469128,0)" xlink:href="#k"/></g><path d="M233-177c-1 41-23 64-60 70L243 0h-38l-65-103H63V0H30v-248c88 3 205-21 203 71zM63-129c60-2 137 13 137-47 0-61-80-42-137-45v92" id="o"/><path d="M100-194c62-1 85 37 85 99 1 63-27 99-86 99S16-35 15-95c0-66 28-99 85-99zM99-20c44 1 53-31 53-75 0-43-8-75-51-75s-53 32-53 75 10 74 51 75" id="p"/><path d="M114-163C36-179 61-72 57 0H25l-1-190h30c1 12-1 29 2 39 6-27 23-49 58-41v29" id="q"/><path d="M85-194c31 0 48 13 60 33l-1-100h32l1 261h-30c-2-10 0-23-3-31C134-8 116 4 85 4 32 4 16-35 15-94c0-66 23-100 70-100zm9 24c-40 0-46 34-46 75 0 40 6 74 45 74 42 0 51-32 51-76 0-42-9-74-50-73" id="r"/><g id="b"><use transform="matrix(0.09876543209876536,0,0,0.09876543209876536,0,0)" xlink:href="#o"/><use transform="matrix(0.09876543209876536,0,0,0.09876543209876536,25.58024691358023,0)" xlink:href="#k"/><use transform="matrix(0.09876543209876536,0,0,0.09876543209876536,45.3333333333333,0)" xlink:href="#n"/><use transform="matrix(0.09876543209876536,0,0,0.09876543209876536,63.111111111111065,0)" xlink:href="#p"/><use transform="matrix(0.09876543209876536,0,0,0.09876543209876536,82.86419753086413,0)" xlink:href="#q"/><use transform="matrix(0.09876543209876536,0,0,0.09876543209876536,94.6172839506172,0)" xlink:href="#r"/></g><path d="M140-251c81 0 123 46 123 126C263-46 219 4 140 4 59 4 17-45 17-125s42-126 123-126zm0 227c63 0 89-41 89-101s-29-99-89-99c-61 0-89 39-89 99S79-25 140-24" id="s"/><path d="M206 0h-36l-40-164L89 0H53L-1-190h32L70-26l43-164h34l41 164 42-164h31" id="t"/><path d="M117-194c89-4 53 116 60 194h-32v-121c0-31-8-49-39-48C34-167 62-67 57 0H25l-1-190h30c1 10-1 24 2 32 11-22 29-35 61-36" id="u"/><path d="M135-143c-3-34-86-38-87 0 15 53 115 12 119 90S17 21 10-45l28-5c4 36 97 45 98 0-10-56-113-15-118-90-4-57 82-63 122-42 12 7 21 19 24 35" id="v"/><g id="c"><use transform="matrix(0.09876543209876536,0,0,0.09876543209876536,0,0)" xlink:href="#s"/><use transform="matrix(0.09876543209876536,0,0,0.09876543209876536,27.6543209876543,0)" xlink:href="#t"/><use transform="matrix(0.09876543209876536,0,0,0.09876543209876536,53.23456790123453,0)" xlink:href="#u"/><use transform="matrix(0.09876543209876536,0,0,0.09876543209876536,72.9876543209876,0)" xlink:href="#v"/></g><path d="M84 4C-5 8 30-112 23-190h32v120c0 31 7 50 39 49 72-2 45-101 50-169h31l1 190h-30c-1-10 1-25-2-33-11 22-28 36-60 37" id="w"/><g id="d"><use transform="matrix(0.08641975308641973,0,0,0.08641975308641973,0,0)" xlink:href="#w"/><use transform="matrix(0.08641975308641973,0,0,0.08641975308641973,17.283950617283946,0)" xlink:href="#w"/><use transform="matrix(0.08641975308641973,0,0,0.08641975308641973,34.56790123456789,0)" xlink:href="#m"/><use transform="matrix(0.08641975308641973,0,0,0.08641975308641973,41.39506172839505,0)" xlink:href="#r"/></g><path d="M59-47c-2 24 18 29 38 22v24C64 9 27 4 27-40v-127H5v-23h24l9-43h21v43h35v23H59v120" id="x"/><path d="M210-169c-67 3-38 105-44 169h-31v-121c0-29-5-50-35-48C34-165 62-65 56 0H25l-1-190h30c1 10-1 24 2 32 10-44 99-50 107 0 11-21 27-35 58-36 85-2 47 119 55 194h-31v-121c0-29-5-49-35-48" id="y"/><path d="M141-36C126-15 110 5 73 4 37 3 15-17 15-53c-1-64 63-63 125-63 3-35-9-54-41-54-24 1-41 7-42 31l-33-3c5-37 33-52 76-52 45 0 72 20 72 64v82c-1 20 7 32 28 27v20c-31 9-61-2-59-35zM48-53c0 20 12 33 32 33 41-3 63-29 60-74-43 2-92-5-92 41" id="z"/><path d="M115-194c55 1 70 41 70 98S169 2 115 4C84 4 66-9 55-30l1 105H24l-1-265h31l2 30c10-21 28-34 59-34zm-8 174c40 0 45-34 45-75s-6-73-45-74c-42 0-51 32-51 76 0 43 10 73 51 73" id="A"/><path d="M-5 72V49h209v23H-5" id="B"/><path d="M115-194c53 0 69 39 70 98 0 66-23 100-70 100C84 3 66-7 56-30L54 0H23l1-261h32v101c10-23 28-34 59-34zm-8 174c40 0 45-34 45-75 0-40-5-75-45-74-42 0-51 32-51 76 0 43 10 73 51 73" id="C"/><path d="M177-190C167-65 218 103 67 71c-23-6-38-20-44-43l32-5c15 47 100 32 89-28v-30C133-14 115 1 83 1 29 1 15-40 15-95c0-56 16-97 71-98 29-1 48 16 59 35 1-10 0-23 2-32h30zM94-22c36 0 50-32 50-73 0-42-14-75-50-75-39 0-46 34-46 75s6 73 46 73" id="D"/><g id="e"><use transform="matrix(0.08641975308641973,0,0,0.08641975308641973,0,0)" xlink:href="#x"/><use transform="matrix(0.08641975308641973,0,0,0.08641975308641973,8.641975308641973,0)" xlink:href="#m"/><use transform="matrix(0.08641975308641973,0,0,0.08641975308641973,15.469135802469133,0)" xlink:href="#y"/><use transform="matrix(0.08641975308641973,0,0,0.08641975308641973,41.30864197530863,0)" xlink:href="#k"/><use transform="matrix(0.08641975308641973,0,0,0.08641975308641973,58.59259259259258,0)" xlink:href="#v"/><use transform="matrix(0.08641975308641973,0,0,0.08641975308641973,74.14814814814814,0)" xlink:href="#x"/><use transform="matrix(0.08641975308641973,0,0,0.08641975308641973,82.79012345679011,0)" xlink:href="#z"/><use transform="matrix(0.08641975308641973,0,0,0.08641975308641973,100.07407407407405,0)" xlink:href="#y"/><use transform="matrix(0.08641975308641973,0,0,0.08641975308641973,125.91358024691357,0)" xlink:href="#A"/><use transform="matrix(0.08641975308641973,0,0,0.08641975308641973,143.19753086419752,0)" xlink:href="#B"/><use transform="matrix(0.08641975308641973,0,0,0.08641975308641973,160.48148148148147,0)" xlink:href="#C"/><use transform="matrix(0.08641975308641973,0,0,0.08641975308641973,177.76543209876544,0)" xlink:href="#k"/><use transform="matrix(0.08641975308641973,0,0,0.08641975308641973,195.0493827160494,0)" xlink:href="#D"/><use transform="matrix(0.08641975308641973,0,0,0.08641975308641973,212.33333333333331,0)" xlink:href="#m"/><use transform="matrix(0.08641975308641973,0,0,0.08641975308641973,219.16049382716048,0)" xlink:href="#u"/></g><path d="M87 75C49 33 22-17 22-94c0-76 28-126 65-167h31c-38 41-64 92-64 168S80 34 118 75H87" id="E"/><path d="M101-251c68 0 85 55 85 127S166 4 100 4C33 4 14-52 14-124c0-73 17-127 87-127zm-1 229c47 0 54-49 54-102s-4-102-53-102c-51 0-55 48-55 102 0 53 5 102 54 102" id="F"/><path d="M68-38c1 34 0 65-14 84H32c9-13 17-26 17-46H33v-38h35" id="G"/><g id="f"><use transform="matrix(0.07407407407407404,0,0,0.07407407407407404,0,0)" xlink:href="#E"/><use transform="matrix(0.07407407407407404,0,0,0.07407407407407404,8.814814814814811,0)" xlink:href="#F"/><use transform="matrix(0.07407407407407404,0,0,0.07407407407407404,23.62962962962962,0)" xlink:href="#G"/></g><path d="M190 0L58-211 59 0H30v-248h39L202-35l-2-213h31V0h-41" id="H"/><path d="M33-261c38 41 65 92 65 168S71 34 33 75H2C39 34 66-17 66-93S39-220 2-261h31" id="I"/><g id="g"><use transform="matrix(0.07407407407407404,0,0,0.07407407407407404,0,0)" xlink:href="#H"/><use transform="matrix(0.07407407407407404,0,0,0.07407407407407404,19.185185185185176,0)" xlink:href="#I"/></g><path d="M27 0v-27h64v-190l-56 39v-29l58-41h29v221h61V0H27" id="J"/><g id="h"><use transform="matrix(0.07407407407407404,0,0,0.07407407407407404,0,0)" xlink:href="#E"/><use transform="matrix(0.07407407407407404,0,0,0.07407407407407404,8.814814814814811,0)" xlink:href="#J"/><use transform="matrix(0.07407407407407404,0,0,0.07407407407407404,23.62962962962962,0)" xlink:href="#G"/></g><g id="i"><use transform="matrix(0.07407407407407404,0,0,0.07407407407407404,0,0)" xlink:href="#J"/><use transform="matrix(0.07407407407407404,0,0,0.07407407407407404,14.814814814814808,0)" xlink:href="#I"/></g></defs></g></svg>