<svg xmlns="http://www.w3.org/2000/svg" xmlns:xlink="http://www.w3.org/1999/xlink" contentStyleType="text/css" height="551px" preserveAspectRatio="none" style="width:3146px;height:551px;background:#FFFFFF;" version="1.1" viewBox="0 0 3146 551" width="3146px" zoomAndPan="magnify"><defs/><g><!--class RecordController--><g id="elem_RecordController"><rect codeLine="2" fill="#F1F1F1" height="113.9531" id="RecordController" rx="2.5" ry="2.5" style="stroke:#181818;stroke-width:0.5;" width="394" x="7" y="120.15"/><ellipse cx="140.75" cy="136.15" fill="#ADD1B2" rx="11" ry="11" style="stroke:#181818;stroke-width:1.0;"/><path d="M143.2231,142.2931 Q142.6421,142.5919 142.0029,142.7413 Q141.3638,142.8907 140.6582,142.8907 Q138.1514,142.8907 136.8315,141.2389 Q135.5117,139.587 135.5117,136.4659 Q135.5117,133.3365 136.8315,131.6847 Q138.1514,130.0328 140.6582,130.0328 Q141.3638,130.0328 142.0112,130.1822 Q142.6587,130.3316 143.2231,130.6305 L143.2231,133.3531 Q142.5923,132.7721 141.9988,132.5023 Q141.4053,132.2325 140.7744,132.2325 Q139.4297,132.2325 138.7449,133.2992 Q138.0601,134.3658 138.0601,136.4659 Q138.0601,138.5577 138.7449,139.6244 Q139.4297,140.691 140.7744,140.691 Q141.4053,140.691 141.9988,140.4212 Q142.5923,140.1515 143.2231,139.5704 Z " fill="#000000"/><text fill="#000000" font-family="sans-serif" font-size="14" lengthAdjust="spacing" textLength="118" x="161.25" y="141.441">RecordController</text><line style="stroke:#181818;stroke-width:0.5;" x1="8" x2="400" y1="152.15" y2="152.15"/><line style="stroke:#181818;stroke-width:0.5;" x1="8" x2="400" y1="160.15" y2="160.15"/><ellipse cx="18" cy="173.8941" fill="#84BE84" rx="3" ry="3" style="stroke:#038048;stroke-width:1.0;"/><text fill="#000000" font-family="sans-serif" font-size="14" lengthAdjust="spacing" textLength="329" x="27" y="177.6852">deleteAllRecordsByDeviceUuid(String uuid): void</text><ellipse cx="18" cy="190.3824" fill="#84BE84" rx="3" ry="3" style="stroke:#038048;stroke-width:1.0;"/><text fill="#000000" font-family="sans-serif" font-size="14" lengthAdjust="spacing" textLength="368" x="27" y="194.1734">checkIfDeviceHasRecordsByUuid(String uuid): Boolean</text><ellipse cx="18" cy="206.8707" fill="#84BE84" rx="3" ry="3" style="stroke:#038048;stroke-width:1.0;"/><text fill="#000000" font-family="sans-serif" font-size="14" lengthAdjust="spacing" textLength="282" x="27" y="210.6617">getAllRecords(String uuid): List&lt;Record&gt;</text><ellipse cx="18" cy="223.359" fill="#84BE84" rx="3" ry="3" style="stroke:#038048;stroke-width:1.0;"/><text fill="#000000" font-family="sans-serif" font-size="14" lengthAdjust="spacing" textLength="305" x="27" y="227.15">insertRecord(RecordRequest request): String</text></g><!--class RecordRequest--><g id="elem_RecordRequest"><rect codeLine="9" fill="#F1F1F1" height="204.8828" id="RecordRequest" rx="2.5" ry="2.5" style="stroke:#181818;stroke-width:0.5;" width="185" x="1261.5" y="74.68"/><ellipse cx="1299" cy="90.68" fill="#ADD1B2" rx="11" ry="11" style="stroke:#181818;stroke-width:1.0;"/><path d="M1301.4731,96.8231 Q1300.8921,97.1219 1300.2529,97.2713 Q1299.6138,97.4207 1298.9082,97.4207 Q1296.4014,97.4207 1295.0815,95.7689 Q1293.7617,94.117 1293.7617,90.9959 Q1293.7617,87.8665 1295.0815,86.2147 Q1296.4014,84.5628 1298.9082,84.5628 Q1299.6138,84.5628 1300.2612,84.7122 Q1300.9087,84.8616 1301.4731,85.1605 L1301.4731,87.8831 Q1300.8423,87.3021 1300.2488,87.0323 Q1299.6553,86.7625 1299.0244,86.7625 Q1297.6797,86.7625 1296.9949,87.8292 Q1296.3101,88.8958 1296.3101,90.9959 Q1296.3101,93.0877 1296.9949,94.1544 Q1297.6797,95.221 1299.0244,95.221 Q1299.6553,95.221 1300.2488,94.9512 Q1300.8423,94.6815 1301.4731,94.1004 Z " fill="#000000"/><text fill="#000000" font-family="sans-serif" font-size="14" lengthAdjust="spacing" textLength="103" x="1318" y="95.971">RecordRequest</text><line style="stroke:#181818;stroke-width:0.5;" x1="1262.5" x2="1445.5" y1="106.68" y2="106.68"/><rect fill="none" height="6" style="stroke:#C82930;stroke-width:1.0;" width="6" x="1269.5" y="117.4241"/><text fill="#000000" font-family="sans-serif" font-size="14" lengthAdjust="spacing" textLength="80" x="1281.5" y="124.2152">uuid: String</text><rect fill="none" height="6" style="stroke:#C82930;stroke-width:1.0;" width="6" x="1269.5" y="133.9124"/><text fill="#000000" font-family="sans-serif" font-size="14" lengthAdjust="spacing" textLength="159" x="1281.5" y="140.7034">timestampBegin: String</text><rect fill="none" height="6" style="stroke:#C82930;stroke-width:1.0;" width="6" x="1269.5" y="150.4007"/><text fill="#000000" font-family="sans-serif" font-size="14" lengthAdjust="spacing" textLength="132" x="1281.5" y="157.1917">windowTitle: String</text><rect fill="none" height="6" style="stroke:#C82930;stroke-width:1.0;" width="6" x="1269.5" y="166.889"/><text fill="#000000" font-family="sans-serif" font-size="14" lengthAdjust="spacing" textLength="125" x="1281.5" y="173.68">recordText: String</text><rect fill="none" height="6" style="stroke:#C82930;stroke-width:1.0;" width="6" x="1269.5" y="183.3773"/><text fill="#000000" font-family="sans-serif" font-size="14" lengthAdjust="spacing" textLength="118" x="1281.5" y="190.1683">ipAddress: String</text><rect fill="none" height="6" style="stroke:#C82930;stroke-width:1.0;" width="6" x="1269.5" y="199.8655"/><text fill="#000000" font-family="sans-serif" font-size="14" lengthAdjust="spacing" textLength="147" x="1281.5" y="206.6566">timestampEnd: String</text><text fill="#000000" font-family="sans-serif" font-size="14" lengthAdjust="spacing" textLength="4" x="1281.5" y="223.1448">&#160;</text><line style="stroke:#181818;stroke-width:1.0;stroke-dasharray:1.0,2.0;" x1="1262.5" x2="1329.5" y1="238.3421" y2="238.3421"/><text fill="#000000" font-family="sans-serif" font-size="14" lengthAdjust="spacing" textLength="49" x="1329.5" y="243.1331">Getters</text><line style="stroke:#181818;stroke-width:1.0;stroke-dasharray:1.0,2.0;" x1="1378.5" x2="1445.5" y1="238.3421" y2="238.3421"/><line style="stroke:#181818;stroke-width:1.0;stroke-dasharray:1.0,2.0;" x1="1262.5" x2="1330.5" y1="263.0745" y2="263.0745"/><text fill="#000000" font-family="sans-serif" font-size="14" lengthAdjust="spacing" textLength="47" x="1330.5" y="267.8655">Setters</text><line style="stroke:#181818;stroke-width:1.0;stroke-dasharray:1.0,2.0;" x1="1377.5" x2="1445.5" y1="263.0745" y2="263.0745"/></g><!--class RecordService--><g id="elem_RecordService"><rect codeLine="21" fill="#F1F1F1" height="196.3945" id="RecordService" rx="2.5" ry="2.5" style="stroke:#181818;stroke-width:0.5;" width="394" x="436" y="78.93"/><ellipse cx="580.75" cy="94.93" fill="#ADD1B2" rx="11" ry="11" style="stroke:#181818;stroke-width:1.0;"/><path d="M583.2231,101.0731 Q582.6421,101.3719 582.0029,101.5213 Q581.3638,101.6707 580.6582,101.6707 Q578.1514,101.6707 576.8315,100.0189 Q575.5117,98.367 575.5117,95.2459 Q575.5117,92.1165 576.8315,90.4647 Q578.1514,88.8128 580.6582,88.8128 Q581.3638,88.8128 582.0112,88.9622 Q582.6587,89.1116 583.2231,89.4105 L583.2231,92.1331 Q582.5923,91.5521 581.9988,91.2823 Q581.4053,91.0125 580.7744,91.0125 Q579.4297,91.0125 578.7449,92.0792 Q578.0601,93.1458 578.0601,95.2459 Q578.0601,97.3377 578.7449,98.4044 Q579.4297,99.471 580.7744,99.471 Q581.4053,99.471 581.9988,99.2012 Q582.5923,98.9315 583.2231,98.3504 Z " fill="#000000"/><text fill="#000000" font-family="sans-serif" font-size="14" lengthAdjust="spacing" textLength="96" x="601.25" y="100.221">RecordService</text><line style="stroke:#181818;stroke-width:0.5;" x1="437" x2="829" y1="110.93" y2="110.93"/><rect fill="none" height="6" style="stroke:#C82930;stroke-width:1.0;" width="6" x="444" y="121.6741"/><text fill="#000000" font-family="sans-serif" font-size="14" lengthAdjust="spacing" textLength="335" x="456" y="128.4652">messageSenderStrategy: MessageSenderStrategy</text><rect fill="none" height="6" style="stroke:#C82930;stroke-width:1.0;" width="6" x="444" y="138.1624"/><text fill="#000000" font-family="sans-serif" font-size="14" lengthAdjust="spacing" textLength="335" x="456" y="144.9534">recordInsertionStrategy: RecordInsertionStrategy</text><line style="stroke:#181818;stroke-width:0.5;" x1="437" x2="829" y1="151.9066" y2="151.9066"/><ellipse cx="447" cy="165.6507" fill="#84BE84" rx="3" ry="3" style="stroke:#038048;stroke-width:1.0;"/><text fill="#000000" font-family="sans-serif" font-size="14" lengthAdjust="spacing" textLength="274" x="456" y="169.4417">deleteAllByDeviceUuid(String uuid): void</text><ellipse cx="447" cy="182.139" fill="#84BE84" rx="3" ry="3" style="stroke:#038048;stroke-width:1.0;"/><text fill="#000000" font-family="sans-serif" font-size="14" lengthAdjust="spacing" textLength="267" x="456" y="185.93">checkIfExistsById(RecordId id): Boolean</text><ellipse cx="447" cy="198.6273" fill="#84BE84" rx="3" ry="3" style="stroke:#038048;stroke-width:1.0;"/><text fill="#000000" font-family="sans-serif" font-size="14" lengthAdjust="spacing" textLength="368" x="456" y="202.4183">checkIfDeviceHasRecordsByUuid(String uuid): Boolean</text><ellipse cx="447" cy="215.1155" fill="#84BE84" rx="3" ry="3" style="stroke:#038048;stroke-width:1.0;"/><text fill="#000000" font-family="sans-serif" font-size="14" lengthAdjust="spacing" textLength="151" x="456" y="218.9066">getAll(): List&lt;Record&gt;</text><ellipse cx="447" cy="231.6038" fill="#84BE84" rx="3" ry="3" style="stroke:#038048;stroke-width:1.0;"/><text fill="#000000" font-family="sans-serif" font-size="14" lengthAdjust="spacing" textLength="274" x="456" y="235.3948">getAllByUuid(String uuid): List&lt;Record&gt;</text><ellipse cx="447" cy="248.0921" fill="#84BE84" rx="3" ry="3" style="stroke:#038048;stroke-width:1.0;"/><text fill="#000000" font-family="sans-serif" font-size="14" lengthAdjust="spacing" textLength="349" x="456" y="251.8831">getAllByIpAddress(String ipAddress): List&lt;Record&gt;</text><ellipse cx="447" cy="264.5804" fill="#84BE84" rx="3" ry="3" style="stroke:#038048;stroke-width:1.0;"/><text fill="#000000" font-family="sans-serif" font-size="14" lengthAdjust="spacing" textLength="285" x="456" y="268.3714">process(RecordRequest request): Boolean</text></g><!--class MessageSenderStrategy--><g id="elem_MessageSenderStrategy"><rect codeLine="33" fill="#F1F1F1" height="64.4883" id="MessageSenderStrategy" rx="2.5" ry="2.5" style="stroke:#181818;stroke-width:0.5;" width="295" x="2844.5" y="409.76"/><ellipse cx="2906.25" cy="425.76" fill="#B4A7E5" rx="11" ry="11" style="stroke:#181818;stroke-width:1.0;"/><path d="M2902.6777,422.0251 L2902.6777,419.8669 L2910.0571,419.8669 L2910.0571,422.0251 L2907.5918,422.0251 L2907.5918,430.1018 L2910.0571,430.1018 L2910.0571,432.26 L2902.6777,432.26 L2902.6777,430.1018 L2905.1431,430.1018 L2905.1431,422.0251 Z " fill="#000000"/><text fill="#000000" font-family="sans-serif" font-size="14" font-style="italic" lengthAdjust="spacing" textLength="163" x="2926.75" y="431.051">MessageSenderStrategy</text><line style="stroke:#181818;stroke-width:0.5;" x1="2845.5" x2="3138.5" y1="441.76" y2="441.76"/><line style="stroke:#181818;stroke-width:0.5;" x1="2845.5" x2="3138.5" y1="449.76" y2="449.76"/><ellipse cx="2855.5" cy="463.5041" fill="#84BE84" rx="3" ry="3" style="stroke:#038048;stroke-width:1.0;"/><text fill="#000000" font-family="sans-serif" font-size="14" lengthAdjust="spacing" textLength="269" x="2864.5" y="467.2952">sendMessage(RecordRequest req): void</text></g><!--class RecordInsertionStrategy--><g id="elem_RecordInsertionStrategy"><rect codeLine="37" fill="#F1F1F1" height="64.4883" id="RecordInsertionStrategy" rx="2.5" ry="2.5" style="stroke:#181818;stroke-width:0.5;" width="290" x="2519" y="409.76"/><ellipse cx="2577.25" cy="425.76" fill="#B4A7E5" rx="11" ry="11" style="stroke:#181818;stroke-width:1.0;"/><path d="M2573.6777,422.0251 L2573.6777,419.8669 L2581.0571,419.8669 L2581.0571,422.0251 L2578.5918,422.0251 L2578.5918,430.1018 L2581.0571,430.1018 L2581.0571,432.26 L2573.6777,432.26 L2573.6777,430.1018 L2576.1431,430.1018 L2576.1431,422.0251 Z " fill="#000000"/><text fill="#000000" font-family="sans-serif" font-size="14" font-style="italic" lengthAdjust="spacing" textLength="165" x="2597.75" y="431.051">RecordInsertionStrategy</text><line style="stroke:#181818;stroke-width:0.5;" x1="2520" x2="2808" y1="441.76" y2="441.76"/><line style="stroke:#181818;stroke-width:0.5;" x1="2520" x2="2808" y1="449.76" y2="449.76"/><ellipse cx="2530" cy="463.5041" fill="#84BE84" rx="3" ry="3" style="stroke:#038048;stroke-width:1.0;"/><text fill="#000000" font-family="sans-serif" font-size="14" lengthAdjust="spacing" textLength="264" x="2539" y="467.2952">insertRecord(RecordRequest req): void</text></g><!--class KafkaMessageSenderStrategy--><g id="elem_KafkaMessageSenderStrategy"><rect codeLine="41" fill="#F1F1F1" height="64.4883" id="KafkaMessageSenderStrategy" rx="2.5" ry="2.5" style="stroke:#181818;stroke-width:0.5;" width="295" x="2844.5" y="144.88"/><ellipse cx="2887.4" cy="160.88" fill="#ADD1B2" rx="11" ry="11" style="stroke:#181818;stroke-width:1.0;"/><path d="M2889.8731,167.0231 Q2889.2921,167.3219 2888.6529,167.4713 Q2888.0138,167.6207 2887.3082,167.6207 Q2884.8014,167.6207 2883.4815,165.9689 Q2882.1617,164.317 2882.1617,161.1959 Q2882.1617,158.0665 2883.4815,156.4147 Q2884.8014,154.7628 2887.3082,154.7628 Q2888.0138,154.7628 2888.6612,154.9122 Q2889.3087,155.0616 2889.8731,155.3605 L2889.8731,158.0831 Q2889.2423,157.5021 2888.6488,157.2323 Q2888.0553,156.9625 2887.4244,156.9625 Q2886.0797,156.9625 2885.3949,158.0292 Q2884.7101,159.0958 2884.7101,161.1959 Q2884.7101,163.2877 2885.3949,164.3544 Q2886.0797,165.421 2887.4244,165.421 Q2888.0553,165.421 2888.6488,165.1512 Q2889.2423,164.8815 2889.8731,164.3004 Z " fill="#000000"/><text fill="#000000" font-family="sans-serif" font-size="14" lengthAdjust="spacing" textLength="201" x="2907.6" y="166.171">KafkaMessageSenderStrategy</text><line style="stroke:#181818;stroke-width:0.5;" x1="2845.5" x2="3138.5" y1="176.88" y2="176.88"/><line style="stroke:#181818;stroke-width:0.5;" x1="2845.5" x2="3138.5" y1="184.88" y2="184.88"/><ellipse cx="2855.5" cy="198.6241" fill="#84BE84" rx="3" ry="3" style="stroke:#038048;stroke-width:1.0;"/><text fill="#000000" font-family="sans-serif" font-size="14" lengthAdjust="spacing" textLength="269" x="2864.5" y="202.4152">sendMessage(RecordRequest req): void</text></g><!--class DefaultRecordInsertionStrategy--><g id="elem_DefaultRecordInsertionStrategy"><rect codeLine="45" fill="#F1F1F1" height="64.4883" id="DefaultRecordInsertionStrategy" rx="2.5" ry="2.5" style="stroke:#181818;stroke-width:0.5;" width="290" x="2519" y="144.88"/><ellipse cx="2553.8" cy="160.88" fill="#ADD1B2" rx="11" ry="11" style="stroke:#181818;stroke-width:1.0;"/><path d="M2556.2731,167.0231 Q2555.6921,167.3219 2555.0529,167.4713 Q2554.4138,167.6207 2553.7082,167.6207 Q2551.2014,167.6207 2549.8815,165.9689 Q2548.5617,164.317 2548.5617,161.1959 Q2548.5617,158.0665 2549.8815,156.4147 Q2551.2014,154.7628 2553.7082,154.7628 Q2554.4138,154.7628 2555.0612,154.9122 Q2555.7087,155.0616 2556.2731,155.3605 L2556.2731,158.0831 Q2555.6423,157.5021 2555.0488,157.2323 Q2554.4553,156.9625 2553.8244,156.9625 Q2552.4797,156.9625 2551.7949,158.0292 Q2551.1101,159.0958 2551.1101,161.1959 Q2551.1101,163.2877 2551.7949,164.3544 Q2552.4797,165.421 2553.8244,165.421 Q2554.4553,165.421 2555.0488,165.1512 Q2555.6423,164.8815 2556.2731,164.3004 Z " fill="#000000"/><text fill="#000000" font-family="sans-serif" font-size="14" lengthAdjust="spacing" textLength="214" x="2572.2" y="166.171">DefaultRecordInsertionStrategy</text><line style="stroke:#181818;stroke-width:0.5;" x1="2520" x2="2808" y1="176.88" y2="176.88"/><line style="stroke:#181818;stroke-width:0.5;" x1="2520" x2="2808" y1="184.88" y2="184.88"/><ellipse cx="2530" cy="198.6241" fill="#84BE84" rx="3" ry="3" style="stroke:#038048;stroke-width:1.0;"/><text fill="#000000" font-family="sans-serif" font-size="14" lengthAdjust="spacing" textLength="264" x="2539" y="202.4152">insertRecord(RecordRequest req): void</text></g><!--class DeviceService--><g id="elem_DeviceService"><rect codeLine="49" fill="#F1F1F1" height="76.9766" id="DeviceService" rx="2.5" ry="2.5" style="stroke:#181818;stroke-width:0.5;" width="310" x="1482" y="138.64"/><ellipse cx="1586.75" cy="154.64" fill="#ADD1B2" rx="11" ry="11" style="stroke:#181818;stroke-width:1.0;"/><path d="M1589.2231,160.7831 Q1588.6421,161.0819 1588.0029,161.2313 Q1587.3638,161.3807 1586.6582,161.3807 Q1584.1514,161.3807 1582.8315,159.7289 Q1581.5117,158.077 1581.5117,154.9559 Q1581.5117,151.8265 1582.8315,150.1747 Q1584.1514,148.5228 1586.6582,148.5228 Q1587.3638,148.5228 1588.0112,148.6722 Q1588.6587,148.8216 1589.2231,149.1205 L1589.2231,151.8431 Q1588.5923,151.2621 1587.9988,150.9923 Q1587.4053,150.7225 1586.7744,150.7225 Q1585.4297,150.7225 1584.7449,151.7892 Q1584.0601,152.8558 1584.0601,154.9559 Q1584.0601,157.0477 1584.7449,158.1144 Q1585.4297,159.181 1586.7744,159.181 Q1587.4053,159.181 1587.9988,158.9112 Q1588.5923,158.6415 1589.2231,158.0604 Z " fill="#000000"/><text fill="#000000" font-family="sans-serif" font-size="14" lengthAdjust="spacing" textLength="92" x="1607.25" y="159.931">DeviceService</text><line style="stroke:#181818;stroke-width:0.5;" x1="1483" x2="1791" y1="170.64" y2="170.64"/><ellipse cx="1493" cy="204.8724" fill="#84BE84" rx="3" ry="3" style="stroke:#038048;stroke-width:1.0;"/><text fill="#000000" font-family="sans-serif" font-size="14" lengthAdjust="spacing" textLength="284" x="1502" y="208.6634">checkIfExistsByUuid(String uuid): Boolean</text><line style="stroke:#181818;stroke-width:1.0;stroke-dasharray:1.0,2.0;" x1="1483" x2="1585.5" y1="186.8841" y2="186.8841"/><text fill="#000000" font-family="sans-serif" font-size="14" lengthAdjust="spacing" textLength="103" x="1585.5" y="191.6752">Other methods</text><line style="stroke:#181818;stroke-width:1.0;stroke-dasharray:1.0,2.0;" x1="1688.5" x2="1791" y1="186.8841" y2="186.8841"/></g><!--class RecordRepository--><g id="elem_RecordRepository"><rect codeLine="54" fill="#F1F1F1" height="97.4648" id="RecordRepository" rx="2.5" ry="2.5" style="stroke:#181818;stroke-width:0.5;" width="362" x="865" y="128.39"/><ellipse cx="981.25" cy="144.39" fill="#ADD1B2" rx="11" ry="11" style="stroke:#181818;stroke-width:1.0;"/><path d="M983.7231,150.5331 Q983.1421,150.8319 982.5029,150.9813 Q981.8638,151.1307 981.1582,151.1307 Q978.6514,151.1307 977.3315,149.4789 Q976.0117,147.827 976.0117,144.7059 Q976.0117,141.5765 977.3315,139.9247 Q978.6514,138.2728 981.1582,138.2728 Q981.8638,138.2728 982.5112,138.4222 Q983.1587,138.5716 983.7231,138.8705 L983.7231,141.5931 Q983.0923,141.0121 982.4988,140.7423 Q981.9053,140.4725 981.2744,140.4725 Q979.9297,140.4725 979.2449,141.5392 Q978.5601,142.6058 978.5601,144.7059 Q978.5601,146.7977 979.2449,147.8644 Q979.9297,148.931 981.2744,148.931 Q981.9053,148.931 982.4988,148.6612 Q983.0923,148.3915 983.7231,147.8104 Z " fill="#000000"/><text fill="#000000" font-family="sans-serif" font-size="14" lengthAdjust="spacing" textLength="121" x="1001.75" y="149.681">RecordRepository</text><line style="stroke:#181818;stroke-width:0.5;" x1="866" x2="1226" y1="160.39" y2="160.39"/><line style="stroke:#181818;stroke-width:0.5;" x1="866" x2="1226" y1="168.39" y2="168.39"/><ellipse cx="876" cy="182.1341" fill="#84BE84" rx="3" ry="3" style="stroke:#038048;stroke-width:1.0;"/><text fill="#000000" font-family="sans-serif" font-size="14" lengthAdjust="spacing" textLength="274" x="885" y="185.9252">findByIdUuid(String uuid): List&lt;Record&gt;</text><ellipse cx="876" cy="198.6224" fill="#84BE84" rx="3" ry="3" style="stroke:#038048;stroke-width:1.0;"/><text fill="#000000" font-family="sans-serif" font-size="14" lengthAdjust="spacing" textLength="336" x="885" y="202.4134">findByIpAddress(String ipAddress): List&lt;Record&gt;</text><ellipse cx="876" cy="215.1107" fill="#84BE84" rx="3" ry="3" style="stroke:#038048;stroke-width:1.0;"/><text fill="#000000" font-family="sans-serif" font-size="14" lengthAdjust="spacing" textLength="243" x="885" y="218.9017">deleteAllByIdUuid(String uuid): void</text></g><!--class Record--><g id="elem_Record"><rect codeLine="60" fill="#F1F1F1" height="204.8828" id="Record" rx="2.5" ry="2.5" style="stroke:#181818;stroke-width:0.5;" width="244" x="511" y="339.57"/><ellipse cx="604.75" cy="355.57" fill="#ADD1B2" rx="11" ry="11" style="stroke:#181818;stroke-width:1.0;"/><path d="M608.3643,362.07 L600.6445,362.07 L600.6445,349.6769 L608.3643,349.6769 L608.3643,351.8351 L603.0933,351.8351 L603.0933,354.508 L607.8662,354.508 L607.8662,356.6662 L603.0933,356.6662 L603.0933,359.9118 L608.3643,359.9118 Z " fill="#000000"/><text fill="#000000" font-family="sans-serif" font-size="14" lengthAdjust="spacing" textLength="48" x="625.25" y="360.861">Record</text><line style="stroke:#181818;stroke-width:0.5;" x1="512" x2="754" y1="371.57" y2="371.57"/><rect fill="none" height="6" style="stroke:#C82930;stroke-width:1.0;" width="6" x="519" y="382.3141"/><text fill="#000000" font-family="sans-serif" font-size="14" lengthAdjust="spacing" textLength="80" x="531" y="389.1052">uuid: String</text><rect fill="none" height="6" style="stroke:#C82930;stroke-width:1.0;" width="6" x="519" y="398.8024"/><text fill="#000000" font-family="sans-serif" font-size="14" lengthAdjust="spacing" textLength="218" x="531" y="405.5934">timestampBegin: LocalDateTime</text><rect fill="none" height="6" style="stroke:#C82930;stroke-width:1.0;" width="6" x="519" y="415.2907"/><text fill="#000000" font-family="sans-serif" font-size="14" lengthAdjust="spacing" textLength="132" x="531" y="422.0817">windowTitle: String</text><rect fill="none" height="6" style="stroke:#C82930;stroke-width:1.0;" width="6" x="519" y="431.779"/><text fill="#000000" font-family="sans-serif" font-size="14" lengthAdjust="spacing" textLength="125" x="531" y="438.57">recordText: String</text><rect fill="none" height="6" style="stroke:#C82930;stroke-width:1.0;" width="6" x="519" y="448.2673"/><text fill="#000000" font-family="sans-serif" font-size="14" lengthAdjust="spacing" textLength="118" x="531" y="455.0583">ipAddress: String</text><rect fill="none" height="6" style="stroke:#C82930;stroke-width:1.0;" width="6" x="519" y="464.7555"/><text fill="#000000" font-family="sans-serif" font-size="14" lengthAdjust="spacing" textLength="206" x="531" y="471.5466">timestampEnd: LocalDateTime</text><text fill="#000000" font-family="sans-serif" font-size="14" lengthAdjust="spacing" textLength="4" x="531" y="488.0348">&#160;</text><line style="stroke:#181818;stroke-width:1.0;stroke-dasharray:1.0,2.0;" x1="512" x2="608.5" y1="503.2321" y2="503.2321"/><text fill="#000000" font-family="sans-serif" font-size="14" lengthAdjust="spacing" textLength="49" x="608.5" y="508.0231">Getters</text><line style="stroke:#181818;stroke-width:1.0;stroke-dasharray:1.0,2.0;" x1="657.5" x2="754" y1="503.2321" y2="503.2321"/><line style="stroke:#181818;stroke-width:1.0;stroke-dasharray:1.0,2.0;" x1="512" x2="609.5" y1="527.9645" y2="527.9645"/><text fill="#000000" font-family="sans-serif" font-size="14" lengthAdjust="spacing" textLength="47" x="609.5" y="532.7555">Setters</text><line style="stroke:#181818;stroke-width:1.0;stroke-dasharray:1.0,2.0;" x1="656.5" x2="754" y1="527.9645" y2="527.9645"/></g><!--class AesCrypt--><g id="elem_AesCrypt"><rect codeLine="72" fill="#F1F1F1" height="139.0625" id="AesCrypt" rx="2.5" ry="2.5" style="stroke:#181818;stroke-width:0.5;" width="251" x="1827.5" y="107.59"/><ellipse cx="1917.75" cy="127.9005" fill="#ADD1B2" rx="11" ry="11" style="stroke:#181818;stroke-width:1.0;"/><path d="M1920.2231,134.0436 Q1919.6421,134.3424 1919.0029,134.4919 Q1918.3638,134.6413 1917.6582,134.6413 Q1915.1514,134.6413 1913.8315,132.9894 Q1912.5117,131.3376 1912.5117,128.2165 Q1912.5117,125.0871 1913.8315,123.4352 Q1915.1514,121.7834 1917.6582,121.7834 Q1918.3638,121.7834 1919.0112,121.9328 Q1919.6587,122.0822 1920.2231,122.381 L1920.2231,125.1037 Q1919.5923,124.5226 1918.9988,124.2528 Q1918.4053,123.9831 1917.7744,123.9831 Q1916.4297,123.9831 1915.7449,125.0497 Q1915.0601,126.1164 1915.0601,128.2165 Q1915.0601,130.3083 1915.7449,131.3749 Q1916.4297,132.4416 1917.7744,132.4416 Q1918.4053,132.4416 1918.9988,132.1718 Q1919.5923,131.902 1920.2231,131.321 Z " fill="#000000"/><text fill="#000000" font-family="sans-serif" font-size="12" font-style="italic" lengthAdjust="spacing" textLength="42" x="1948.25" y="124.1916">&#171;static&#187;</text><text fill="#000000" font-family="sans-serif" font-size="14" lengthAdjust="spacing" textLength="62" x="1938.25" y="140.258">AesCrypt</text><line style="stroke:#181818;stroke-width:0.5;" x1="1828.5" x2="2077.5" y1="148.2111" y2="148.2111"/><rect fill="none" height="6" style="stroke:#C82930;stroke-width:1.0;" width="6" x="1835.5" y="158.9552"/><text fill="#000000" font-family="sans-serif" font-size="14" lengthAdjust="spacing" textLength="131" x="1847.5" y="165.7463">ALGORITHM: String</text><rect fill="none" height="6" style="stroke:#C82930;stroke-width:1.0;" width="6" x="1835.5" y="175.4435"/><text fill="#000000" font-family="sans-serif" font-size="14" lengthAdjust="spacing" textLength="179" x="1847.5" y="182.2345">TRANSFORMATION: String</text><rect fill="none" height="6" style="stroke:#C82930;stroke-width:1.0;" width="6" x="1835.5" y="191.9318"/><text fill="#000000" font-family="sans-serif" font-size="14" lengthAdjust="spacing" textLength="75" x="1847.5" y="198.7228">KEY: String</text><line style="stroke:#181818;stroke-width:0.5;" x1="1828.5" x2="2077.5" y1="205.6759" y2="205.6759"/><ellipse cx="1838.5" cy="219.4201" fill="#84BE84" rx="3" ry="3" style="stroke:#038048;stroke-width:1.0;"/><text fill="#000000" font-family="sans-serif" font-size="14" lengthAdjust="spacing" textLength="216" x="1847.5" y="223.2111">encrypt(String plaintext): String</text><ellipse cx="1838.5" cy="235.9084" fill="#84BE84" rx="3" ry="3" style="stroke:#038048;stroke-width:1.0;"/><text fill="#000000" font-family="sans-serif" font-size="14" lengthAdjust="spacing" textLength="225" x="1847.5" y="239.6994">decrypt(String ciphertext): String</text></g><!--class DateUtils--><g id="elem_DateUtils"><rect codeLine="81" fill="#F1F1F1" height="89.5977" id="DateUtils" rx="2.5" ry="2.5" style="stroke:#181818;stroke-width:0.5;" width="370" x="2114" y="132.33"/><ellipse cx="2264.25" cy="152.6405" fill="#ADD1B2" rx="11" ry="11" style="stroke:#181818;stroke-width:1.0;"/><path d="M2266.7231,158.7836 Q2266.1421,159.0824 2265.5029,159.2319 Q2264.8638,159.3813 2264.1582,159.3813 Q2261.6514,159.3813 2260.3315,157.7294 Q2259.0117,156.0776 2259.0117,152.9565 Q2259.0117,149.8271 2260.3315,148.1752 Q2261.6514,146.5234 2264.1582,146.5234 Q2264.8638,146.5234 2265.5112,146.6728 Q2266.1587,146.8222 2266.7231,147.121 L2266.7231,149.8437 Q2266.0923,149.2626 2265.4988,148.9928 Q2264.9053,148.7231 2264.2744,148.7231 Q2262.9297,148.7231 2262.2449,149.7897 Q2261.5601,150.8564 2261.5601,152.9565 Q2261.5601,155.0483 2262.2449,156.1149 Q2262.9297,157.1816 2264.2744,157.1816 Q2264.9053,157.1816 2265.4988,156.9118 Q2266.0923,156.642 2266.7231,156.061 Z " fill="#000000"/><text fill="#000000" font-family="sans-serif" font-size="12" font-style="italic" lengthAdjust="spacing" textLength="42" x="2294.25" y="148.9316">&#171;static&#187;</text><text fill="#000000" font-family="sans-serif" font-size="14" lengthAdjust="spacing" textLength="61" x="2284.75" y="164.998">DateUtils</text><line style="stroke:#181818;stroke-width:0.5;" x1="2115" x2="2483" y1="172.9511" y2="172.9511"/><line style="stroke:#181818;stroke-width:0.5;" x1="2115" x2="2483" y1="180.9511" y2="180.9511"/><text fill="#000000" font-family="sans-serif" font-size="14" lengthAdjust="spacing" textLength="358" x="2120" y="198.4863">dateTimeToString(LocalDateTime timestamp): String</text><text fill="#000000" font-family="sans-serif" font-size="14" lengthAdjust="spacing" textLength="346" x="2120" y="214.9745">stringToDateTime(String datetime): LocalDateTime</text></g><!--link RecordController to RecordRequest--><g id="link_RecordController_RecordRequest"><path codeLine="86" d="M281.02,119.74 C324.3,91.09 380.7,59.46 436.5,44.68 C521.46,22.18 1146.69,10.12 1227.5,44.68 C1244.16,51.81 1255.1256,58.4239 1269.1756,70.4739 " fill="none" id="RecordController-to-RecordRequest" style="stroke:#181818;stroke-width:1.0;"/><polygon fill="#181818" points="1273.73,74.38,1269.5025,65.4846,1269.9347,71.1249,1264.2944,71.5571,1273.73,74.38" style="stroke:#181818;stroke-width:1.0;"/></g><!--link RecordController to RecordService--><g id="link_RecordController_RecordService"><path codeLine="87" d="M401.32,177.13 C412.79,177.13 418.25,177.13 429.71,177.13 " fill="none" id="RecordController-to-RecordService" style="stroke:#181818;stroke-width:1.0;"/><polygon fill="#181818" points="435.71,177.13,426.71,173.13,430.71,177.13,426.71,181.13,435.71,177.13" style="stroke:#181818;stroke-width:1.0;"/></g><!--link RecordService to RecordRepository--><g id="link_RecordService_RecordRepository"><path codeLine="88" d="M830.22,177.13 C841.74,177.13 847.26,177.13 858.78,177.13 " fill="none" id="RecordService-to-RecordRepository" style="stroke:#181818;stroke-width:1.0;"/><polygon fill="#181818" points="864.78,177.13,855.78,173.13,859.78,177.13,855.78,181.13,864.78,177.13" style="stroke:#181818;stroke-width:1.0;"/></g><!--link RecordService to DeviceService--><g id="link_RecordService_DeviceService"><path codeLine="89" d="M779.36,78.55 C806.62,64.57 835.64,52.36 864.5,44.68 C989.49,11.46 1323.09,6 1446.5,44.68 C1504.92,63 1556.6525,102.256 1592.6725,134.386 " fill="none" id="RecordService-to-DeviceService" style="stroke:#181818;stroke-width:1.0;"/><polygon fill="#181818" points="1597.15,138.38,1593.0964,129.404,1593.4187,135.0517,1587.7711,135.3741,1597.15,138.38" style="stroke:#181818;stroke-width:1.0;"/></g><!--link RecordController to Record--><g id="link_RecordController_Record"><path codeLine="91" d="M296.03,234.52 C358.69,272.92 437.194,321.0253 505.464,362.8553 " fill="none" id="RecordController-to-Record" style="stroke:#181818;stroke-width:1.0;stroke-dasharray:7.0,7.0;"/><polygon fill="#181818" points="510.58,365.99,504.9957,357.8773,506.3166,363.3778,500.8162,364.6987,510.58,365.99" style="stroke:#181818;stroke-width:1.0;"/></g><!--link RecordService to Record--><g id="link_RecordService_Record"><path codeLine="92" d="M633,275.64 C633,296.39 633,312.35 633,333.25 " fill="none" id="RecordService-to-Record" style="stroke:#181818;stroke-width:1.0;stroke-dasharray:7.0,7.0;"/><polygon fill="#181818" points="633,339.25,637,330.25,633,334.25,629,330.25,633,339.25" style="stroke:#181818;stroke-width:1.0;"/></g><!--link RecordRepository to Record--><g id="link_RecordRepository_Record"><path codeLine="93" d="M970.25,226.34 C910.17,264.58 830.0613,315.5678 760.3513,359.9478 " fill="none" id="RecordRepository-to-Record" style="stroke:#181818;stroke-width:1.0;stroke-dasharray:7.0,7.0;"/><polygon fill="#181818" points="755.29,363.17,765.0302,361.7109,759.5078,360.4848,760.7339,354.9624,755.29,363.17" style="stroke:#181818;stroke-width:1.0;"/></g><!--link RecordRequest to AesCrypt--><g id="link_RecordRequest_AesCrypt"><path codeLine="95" d="M1435,74.37 C1449.15,62.32 1464.76,51.81 1481.5,44.68 C1545.1,17.63 1727.46,21.31 1792.5,44.68 C1828.54,57.63 1857.819,78.5245 1884.949,103.2945 " fill="none" id="RecordRequest-to-AesCrypt" style="stroke:#181818;stroke-width:1.0;"/><polygon fill="#181818" points="1889.38,107.34,1885.4306,98.3177,1885.6875,103.9687,1880.0365,104.2257,1889.38,107.34" style="stroke:#181818;stroke-width:1.0;"/></g><!--link RecordRequest to DateUtils--><g id="link_RecordRequest_DateUtils"><path codeLine="96" d="M1435,74.37 C1449.15,62.32 1464.76,51.81 1481.5,44.68 C1542.54,18.72 2014.58,26.96 2078.5,44.68 C2139.82,61.68 2196.3757,97.2327 2238.7457,128.5627 " fill="none" id="RecordRequest-to-DateUtils" style="stroke:#181818;stroke-width:1.0;"/><polygon fill="#181818" points="2243.57,132.13,2238.7117,123.5628,2239.5497,129.1572,2233.9553,129.9953,2243.57,132.13" style="stroke:#181818;stroke-width:1.0;"/></g><!--link RecordService to KafkaMessageSenderStrategy--><g id="link_RecordService_KafkaMessageSenderStrategy"><path codeLine="98" d="M779.36,78.55 C806.62,64.57 835.64,52.36 864.5,44.68 C968.93,16.92 2706.72,11.32 2809.5,44.68 C2869.82,64.27 2922.5562,107.9401 2956.3262,140.4301 " fill="none" id="RecordService-to-KafkaMessageSenderStrategy" style="stroke:#181818;stroke-width:1.0;"/><polygon fill="#181818" points="2960.65,144.59,2956.9376,135.4676,2957.0468,141.1234,2951.391,141.2327,2960.65,144.59" style="stroke:#181818;stroke-width:1.0;"/></g><!--link RecordService to DefaultRecordInsertionStrategy--><g id="link_RecordService_DefaultRecordInsertionStrategy"><path codeLine="99" d="M779.36,78.55 C806.62,64.57 835.64,52.36 864.5,44.68 C951.48,21.56 2399.01,16.56 2484.5,44.68 C2544.1,64.29 2595.8662,107.919 2628.9862,140.399 " fill="none" id="RecordService-to-DefaultRecordInsertionStrategy" style="stroke:#181818;stroke-width:1.0;"/><polygon fill="#181818" points="2633.27,144.6,2629.645,135.4425,2629.7001,141.0991,2624.0436,141.1543,2633.27,144.6" style="stroke:#181818;stroke-width:1.0;"/></g><!--link KafkaMessageSenderStrategy to MessageSenderStrategy--><g id="link_KafkaMessageSenderStrategy_MessageSenderStrategy"><path codeLine="100" d="M2992,209.84 C2992,260.5 2992,341.12 2992,391.6 " fill="none" id="KafkaMessageSenderStrategy-to-MessageSenderStrategy" style="stroke:#181818;stroke-width:1.0;stroke-dasharray:7.0,7.0;"/><polygon fill="none" points="2992,409.6,2998,391.6,2986,391.6,2992,409.6" style="stroke:#181818;stroke-width:1.0;"/></g><!--link DefaultRecordInsertionStrategy to RecordInsertionStrategy--><g id="link_DefaultRecordInsertionStrategy_RecordInsertionStrategy"><path codeLine="101" d="M2664,209.84 C2664,260.5 2664,341.12 2664,391.6 " fill="none" id="DefaultRecordInsertionStrategy-to-RecordInsertionStrategy" style="stroke:#181818;stroke-width:1.0;stroke-dasharray:7.0,7.0;"/><polygon fill="none" points="2664,409.6,2670,391.6,2658,391.6,2664,409.6" style="stroke:#181818;stroke-width:1.0;"/></g><!--SRC=[jLNDRjf04BxxANmagk87Y12I2MbY1O9ad4EFAtk0LPPTTtT9G6tVlMFMQtlzrwAcNB1clld_PZPbH2a_XbJ8x5vmBGLZ8FqVde-_Btu633I4Z1c4cfyNy4vJU3tIRBBHalATVyJlcpl_NT2ij4htaBv5MmDz8geoxZ6R2y60yD9o1xeEra8kgT9JevgLSCeLI6ra4_CNm_SZAErByuzsnelto_FIHh4MPogzlGIfi4QawG4Hv93FOKTvI_b1UIO-4gePj3JouZ-1asufQ1vccGIbXk8yy3g5You8_4VG6gJ2JolPr99MJHkGHSUhcj2j8ZlO0Cz0eb-YONU-yrTzOYVvwD9NAdXj5FShsZovYY0F9nmfqYAomuioluSK_qgdIJzvZBBNomWwiaEq9jLK- -roAT82FSHEcp2EadASwvRW07idL2sbGd69wBgrZNRy3GolyZY-HmsNXctFPFj6FYT7ut01Mt9a-fFJD8HnbmBtPwttUE4EeFSYg_QgmyaHRdKkIIuKrKBMYMxnE1Iq_ZjgbUWhYTLOkTv0jXV0DTNdCjThpjrIf8GjS089AlxtrNE3NNVyGb3tyfnhVpf5XvgcirbLPxXyNCTHyhHgHK_Yy6NpTHslmYHQlxIKpm_V74dPSU1f4SRsEMUasB1Juusnat5mASsHS2wmvYYM_AefKztaix8RYJ164wT7TV_SyEhocGYBiraKtWgJctQlCPNEytyxSr_94KIvNfxx0ZKSsENe8fpzxCaY2AoNbcr7qLZ1XivpJmH6j4pfQgevUDqyXyzTNqrZbymRkPn1y7Csy3J_uJnUB8SY_WO0]--></g></svg>