<svg xmlns="http://www.w3.org/2000/svg" xmlns:xlink="http://www.w3.org/1999/xlink" contentStyleType="text/css" height="260px" preserveAspectRatio="none" style="width:2062px;height:260px;background:#FFFFFF;" version="1.1" viewBox="0 0 2062 260" width="2062px" zoomAndPan="magnify"><defs/><g><!--class Cluster--><g id="elem_Cluster"><rect codeLine="1" fill="#F1F1F1" height="48" id="Cluster" rx="2.5" ry="2.5" style="stroke:#181818;stroke-width:0.5;" width="81" x="7" y="143.54"/><ellipse cx="22" cy="159.54" fill="#ADD1B2" rx="11" ry="11" style="stroke:#181818;stroke-width:1.0;"/><path d="M25.6143,166.04 L17.8945,166.04 L17.8945,153.6469 L25.6143,153.6469 L25.6143,155.8051 L20.3433,155.8051 L20.3433,158.478 L25.1162,158.478 L25.1162,160.6362 L20.3433,160.6362 L20.3433,163.8818 L25.6143,163.8818 Z " fill="#000000"/><text fill="#000000" font-family="sans-serif" font-size="14" lengthAdjust="spacing" textLength="49" x="36" y="164.831">Cluster</text><line style="stroke:#181818;stroke-width:0.5;" x1="8" x2="87" y1="175.54" y2="175.54"/><line style="stroke:#181818;stroke-width:0.5;" x1="8" x2="87" y1="183.54" y2="183.54"/></g><!--class Process--><g id="elem_Process"><rect codeLine="3" fill="#F1F1F1" height="48" id="Process" rx="2.5" ry="2.5" style="stroke:#181818;stroke-width:0.5;" width="84" x="123.5" y="143.54"/><ellipse cx="138.5" cy="159.54" fill="#ADD1B2" rx="11" ry="11" style="stroke:#181818;stroke-width:1.0;"/><path d="M142.1143,166.04 L134.3945,166.04 L134.3945,153.6469 L142.1143,153.6469 L142.1143,155.8051 L136.8433,155.8051 L136.8433,158.478 L141.6162,158.478 L141.6162,160.6362 L136.8433,160.6362 L136.8433,163.8818 L142.1143,163.8818 Z " fill="#000000"/><text fill="#000000" font-family="sans-serif" font-size="14" lengthAdjust="spacing" textLength="52" x="152.5" y="164.831">Process</text><line style="stroke:#181818;stroke-width:0.5;" x1="124.5" x2="206.5" y1="175.54" y2="175.54"/><line style="stroke:#181818;stroke-width:0.5;" x1="124.5" x2="206.5" y1="183.54" y2="183.54"/></g><!--class DateUtils--><g id="elem_DateUtils"><rect codeLine="7" fill="#F1F1F1" height="80.9766" id="DateUtils" rx="2.5" ry="2.5" style="stroke:#181818;stroke-width:0.5;" width="628" x="1427.5" y="127.05"/><ellipse cx="1706.75" cy="143.05" fill="#ADD1B2" rx="11" ry="11" style="stroke:#181818;stroke-width:1.0;"/><path d="M1709.2231,149.1931 Q1708.6421,149.4919 1708.0029,149.6413 Q1707.3638,149.7907 1706.6582,149.7907 Q1704.1514,149.7907 1702.8315,148.1389 Q1701.5117,146.487 1701.5117,143.3659 Q1701.5117,140.2365 1702.8315,138.5847 Q1704.1514,136.9328 1706.6582,136.9328 Q1707.3638,136.9328 1708.0112,137.0822 Q1708.6587,137.2316 1709.2231,137.5305 L1709.2231,140.2531 Q1708.5923,139.6721 1707.9988,139.4023 Q1707.4053,139.1325 1706.7744,139.1325 Q1705.4297,139.1325 1704.7449,140.1992 Q1704.0601,141.2658 1704.0601,143.3659 Q1704.0601,145.4577 1704.7449,146.5244 Q1705.4297,147.591 1706.7744,147.591 Q1707.4053,147.591 1707.9988,147.3212 Q1708.5923,147.0515 1709.2231,146.4704 Z " fill="#000000"/><text fill="#000000" font-family="sans-serif" font-size="14" lengthAdjust="spacing" textLength="61" x="1727.25" y="148.341">DateUtils</text><line style="stroke:#181818;stroke-width:0.5;" x1="1428.5" x2="2054.5" y1="159.05" y2="159.05"/><line style="stroke:#181818;stroke-width:0.5;" x1="1428.5" x2="2054.5" y1="167.05" y2="167.05"/><ellipse cx="1438.5" cy="180.7941" fill="#84BE84" rx="3" ry="3" style="stroke:#038048;stroke-width:1.0;"/><text fill="#000000" font-family="sans-serif" font-size="14" lengthAdjust="spacing" textLength="187" x="1447.5" y="184.5852">get_timestamp(): dictionary</text><ellipse cx="1438.5" cy="197.2824" fill="#84BE84" rx="3" ry="3" style="stroke:#038048;stroke-width:1.0;"/><text fill="#000000" font-family="sans-serif" font-size="14" lengthAdjust="spacing" textLength="602" x="1447.5" y="201.0734">get_delta_timestamps(timestamp_begin: datetime, timestamp_end: datetime): dictionary</text></g><!--class ElasticSearchClient--><g id="elem_ElasticSearchClient"><rect codeLine="12" fill="#F1F1F1" height="130.4414" id="ElasticSearchClient" rx="2.5" ry="2.5" style="stroke:#181818;stroke-width:0.5;" width="569" x="823" y="102.32"/><ellipse cx="1038.75" cy="118.32" fill="#ADD1B2" rx="11" ry="11" style="stroke:#181818;stroke-width:1.0;"/><path d="M1041.2231,124.4631 Q1040.6421,124.7619 1040.0029,124.9113 Q1039.3638,125.0607 1038.6582,125.0607 Q1036.1514,125.0607 1034.8315,123.4089 Q1033.5117,121.757 1033.5117,118.6359 Q1033.5117,115.5065 1034.8315,113.8547 Q1036.1514,112.2028 1038.6582,112.2028 Q1039.3638,112.2028 1040.0112,112.3522 Q1040.6587,112.5016 1041.2231,112.8005 L1041.2231,115.5231 Q1040.5923,114.9421 1039.9988,114.6723 Q1039.4053,114.4025 1038.7744,114.4025 Q1037.4297,114.4025 1036.7449,115.4692 Q1036.0601,116.5358 1036.0601,118.6359 Q1036.0601,120.7277 1036.7449,121.7944 Q1037.4297,122.861 1038.7744,122.861 Q1039.4053,122.861 1039.9988,122.5912 Q1040.5923,122.3215 1041.2231,121.7404 Z " fill="#000000"/><text fill="#000000" font-family="sans-serif" font-size="14" lengthAdjust="spacing" textLength="129" x="1059.25" y="123.611">ElasticSearchClient</text><line style="stroke:#181818;stroke-width:0.5;" x1="824" x2="1391" y1="134.32" y2="134.32"/><line style="stroke:#181818;stroke-width:0.5;" x1="824" x2="1391" y1="142.32" y2="142.32"/><ellipse cx="834" cy="156.0641" fill="#84BE84" rx="3" ry="3" style="stroke:#038048;stroke-width:1.0;"/><text fill="#000000" font-family="sans-serif" font-size="14" lengthAdjust="spacing" textLength="105" x="843" y="159.8552">__init__(url: str)</text><ellipse cx="834" cy="172.5524" fill="#84BE84" rx="3" ry="3" style="stroke:#038048;stroke-width:1.0;"/><text fill="#000000" font-family="sans-serif" font-size="14" lengthAdjust="spacing" textLength="395" x="843" y="176.3434">create_index(index_name: str, mapping_body: dict): None</text><ellipse cx="834" cy="189.0407" fill="#84BE84" rx="3" ry="3" style="stroke:#038048;stroke-width:1.0;"/><text fill="#000000" font-family="sans-serif" font-size="14" lengthAdjust="spacing" textLength="375" x="843" y="192.8317">get_document(index_name: str, document_id: str): Any</text><ellipse cx="834" cy="205.529" fill="#84BE84" rx="3" ry="3" style="stroke:#038048;stroke-width:1.0;"/><text fill="#000000" font-family="sans-serif" font-size="14" lengthAdjust="spacing" textLength="543" x="843" y="209.32">index_document(index_name: str, document_id: str, document_body: dict): Any</text><ellipse cx="834" cy="222.0173" fill="#84BE84" rx="3" ry="3" style="stroke:#038048;stroke-width:1.0;"/><text fill="#000000" font-family="sans-serif" font-size="14" lengthAdjust="spacing" textLength="395" x="843" y="225.8083">delete_document(index_name: str, document_id: str): Any</text></g><!--class GeolocationService--><g id="elem_GeolocationService"><rect codeLine="20" fill="#F1F1F1" height="171.418" id="GeolocationService" rx="2.5" ry="2.5" style="stroke:#181818;stroke-width:0.5;" width="290" x="497.5" y="81.83"/><ellipse cx="573.25" cy="97.83" fill="#ADD1B2" rx="11" ry="11" style="stroke:#181818;stroke-width:1.0;"/><path d="M575.7231,103.9731 Q575.1421,104.2719 574.5029,104.4213 Q573.8638,104.5707 573.1582,104.5707 Q570.6514,104.5707 569.3315,102.9189 Q568.0117,101.267 568.0117,98.1459 Q568.0117,95.0165 569.3315,93.3647 Q570.6514,91.7128 573.1582,91.7128 Q573.8638,91.7128 574.5112,91.8622 Q575.1587,92.0116 575.7231,92.3105 L575.7231,95.0331 Q575.0923,94.4521 574.4988,94.1823 Q573.9053,93.9125 573.2744,93.9125 Q571.9297,93.9125 571.2449,94.9792 Q570.5601,96.0458 570.5601,98.1459 Q570.5601,100.2377 571.2449,101.3044 Q571.9297,102.371 573.2744,102.371 Q573.9053,102.371 574.4988,102.1012 Q575.0923,101.8315 575.7231,101.2504 Z " fill="#000000"/><text fill="#000000" font-family="sans-serif" font-size="14" lengthAdjust="spacing" textLength="130" x="593.75" y="103.121">GeolocationService</text><line style="stroke:#181818;stroke-width:0.5;" x1="498.5" x2="786.5" y1="113.83" y2="113.83"/><rect fill="none" height="6" style="stroke:#C82930;stroke-width:1.0;" width="6" x="505.5" y="124.5741"/><text fill="#000000" font-family="sans-serif" font-size="14" lengthAdjust="spacing" textLength="81" x="517.5" y="131.3652">API_URL: str</text><line style="stroke:#181818;stroke-width:0.5;" x1="498.5" x2="786.5" y1="138.3183" y2="138.3183"/><rect fill="#F24D5C" height="6" style="stroke:#C82930;stroke-width:1.0;" width="6" x="505.5" y="149.0624"/><text fill="#000000" font-family="sans-serif" font-size="14" lengthAdjust="spacing" textLength="264" x="517.5" y="155.8534">fetch_ip_geo_info(ip_address: str): dict</text><line style="stroke:#181818;stroke-width:1.0;stroke-dasharray:1.0,2.0;" x1="498.5" x2="786.5" y1="162.8066" y2="162.8066"/><ellipse cx="508.5" cy="176.5507" fill="#84BE84" rx="3" ry="3" style="stroke:#038048;stroke-width:1.0;"/><text fill="#000000" font-family="sans-serif" font-size="14" lengthAdjust="spacing" textLength="160" x="517.5" y="180.3417">__init__(ip_address: str)</text><ellipse cx="508.5" cy="193.039" fill="#84BE84" rx="3" ry="3" style="stroke:#038048;stroke-width:1.0;"/><text fill="#000000" font-family="sans-serif" font-size="14" lengthAdjust="spacing" textLength="164" x="517.5" y="196.83">get_country_code(): dict</text><ellipse cx="508.5" cy="209.5273" fill="#84BE84" rx="3" ry="3" style="stroke:#038048;stroke-width:1.0;"/><text fill="#000000" font-family="sans-serif" font-size="14" lengthAdjust="spacing" textLength="164" x="517.5" y="213.3183">get_country_code(): dict</text><ellipse cx="508.5" cy="226.0155" fill="#84BE84" rx="3" ry="3" style="stroke:#038048;stroke-width:1.0;"/><text fill="#000000" font-family="sans-serif" font-size="14" lengthAdjust="spacing" textLength="150" x="517.5" y="229.8066">get_state_name(): dict</text><ellipse cx="508.5" cy="242.5038" fill="#84BE84" rx="3" ry="3" style="stroke:#038048;stroke-width:1.0;"/><text fill="#000000" font-family="sans-serif" font-size="14" lengthAdjust="spacing" textLength="119" x="517.5" y="246.2948">get_coords(): dict</text></g><!--class WindowTitleClassifier--><g id="elem_WindowTitleClassifier"><rect codeLine="32" fill="#F1F1F1" height="97.4648" id="WindowTitleClassifier" rx="2.5" ry="2.5" style="stroke:#181818;stroke-width:0.5;" width="219" x="243" y="118.81"/><ellipse cx="276" cy="134.81" fill="#ADD1B2" rx="11" ry="11" style="stroke:#181818;stroke-width:1.0;"/><path d="M278.4731,140.9531 Q277.8921,141.2519 277.2529,141.4013 Q276.6138,141.5507 275.9082,141.5507 Q273.4014,141.5507 272.0815,139.8989 Q270.7617,138.247 270.7617,135.1259 Q270.7617,131.9965 272.0815,130.3447 Q273.4014,128.6928 275.9082,128.6928 Q276.6138,128.6928 277.2612,128.8422 Q277.9087,128.9916 278.4731,129.2905 L278.4731,132.0131 Q277.8423,131.4321 277.2488,131.1623 Q276.6553,130.8925 276.0244,130.8925 Q274.6797,130.8925 273.9949,131.9592 Q273.3101,133.0258 273.3101,135.1259 Q273.3101,137.2177 273.9949,138.2844 Q274.6797,139.351 276.0244,139.351 Q276.6553,139.351 277.2488,139.0812 Q277.8423,138.8115 278.4731,138.2304 Z " fill="#000000"/><text fill="#000000" font-family="sans-serif" font-size="14" lengthAdjust="spacing" textLength="147" x="294" y="140.101">WindowTitleClassifier</text><line style="stroke:#181818;stroke-width:0.5;" x1="244" x2="461" y1="150.81" y2="150.81"/><rect fill="#F24D5C" height="6" style="stroke:#C82930;stroke-width:1.0;" width="6" x="251" y="161.5541"/><text fill="#000000" font-family="sans-serif" font-size="14" lengthAdjust="spacing" textLength="193" x="263" y="168.3452">load_titles(file_path: str): set</text><line style="stroke:#181818;stroke-width:1.0;stroke-dasharray:1.0,2.0;" x1="244" x2="461" y1="175.2983" y2="175.2983"/><ellipse cx="254" cy="189.0424" fill="#84BE84" rx="3" ry="3" style="stroke:#038048;stroke-width:1.0;"/><text fill="#000000" font-family="sans-serif" font-size="14" lengthAdjust="spacing" textLength="172" x="263" y="192.8334">__init__(window_title: str)</text><ellipse cx="254" cy="205.5307" fill="#84BE84" rx="3" ry="3" style="stroke:#038048;stroke-width:1.0;"/><text fill="#000000" font-family="sans-serif" font-size="14" lengthAdjust="spacing" textLength="185" x="263" y="209.3217">classify_window_title(): dict</text></g><!--link Cluster to Process--><g id="link_Cluster_Process"><path codeLine="5" d="M88.06,167.54 C99.76,167.54 105.46,167.54 117.15,167.54 " fill="none" id="Cluster-to-Process" style="stroke:#181818;stroke-width:1.0;"/><polygon fill="#181818" points="123.15,167.54,114.15,163.54,118.15,167.54,114.15,171.54,123.15,167.54" style="stroke:#181818;stroke-width:1.0;"/></g><!--link Process to DateUtils--><g id="link_Process_DateUtils"><path codeLine="39" d="M173.78,143.2 C184.72,115.34 206.95,71.07 243,51.83 C299.31,21.77 1328.98,41.67 1392,51.83 C1480.34,66.08 1571.0077,97.1504 1640.0877,124.3704 " fill="none" id="Process-to-DateUtils" style="stroke:#181818;stroke-width:1.0;"/><polygon fill="#181818" points="1645.67,126.57,1638.763,119.5491,1641.0181,124.737,1635.8302,126.9921,1645.67,126.57" style="stroke:#181818;stroke-width:1.0;"/></g><!--link Process to ElasticSearchClient--><g id="link_Process_ElasticSearchClient"><path codeLine="40" d="M173.78,143.2 C184.72,115.34 206.95,71.07 243,51.83 C296.42,23.32 728.36,41.36 788,51.83 C845.67,61.95 901.0459,79.4766 954.0959,99.7666 " fill="none" id="Process-to-ElasticSearchClient" style="stroke:#181818;stroke-width:1.0;"/><polygon fill="#181818" points="959.7,101.91,952.7228,94.9588,955.0299,100.1238,949.8649,102.431,959.7,101.91" style="stroke:#181818;stroke-width:1.0;"/></g><!--link Process to GeolocationService--><g id="link_Process_GeolocationService"><path codeLine="41" d="M173.78,143.2 C184.72,115.34 206.95,71.07 243,51.83 C328.87,6 368.59,24.46 462,51.83 C485.04,58.58 502.7226,66.2995 524.0726,78.5195 " fill="none" id="Process-to-GeolocationService" style="stroke:#181818;stroke-width:1.0;"/><polygon fill="#181818" points="529.28,81.5,523.456,73.5577,524.9405,79.0162,519.482,80.5008,529.28,81.5" style="stroke:#181818;stroke-width:1.0;"/></g><!--link Process to WindowTitleClassifier--><g id="link_Process_WindowTitleClassifier"><path codeLine="42" d="M207.87,167.54 C219.45,167.54 225.03,167.54 236.61,167.54 " fill="none" id="Process-to-WindowTitleClassifier" style="stroke:#181818;stroke-width:1.0;"/><polygon fill="#181818" points="242.61,167.54,233.61,163.54,237.61,167.54,233.61,171.54,242.61,167.54" style="stroke:#181818;stroke-width:1.0;"/></g><!--SRC=[bLFRIWCn47tVhyZZ5hKVq0T1geWWKgpYOuZ9R3kGJPParhg8_-xiFTKAkW_PPCxSpia4724rOcthI12o3Fhp9dWDCMRP08YBozcchOfHN2k2Pq8RnKSc-3iJEo19M48aLLRvOYKCQaBlL6WI3mEMrEmNysahNs67ZiCuSsiy5pC4pip0SUhFiQCRNWdr5bJG-xL5vZBr9YKw92dpEjYLY1GM0w03S5P63RpdtIgTAg7pEHUbgYfqE_dgJTCNvTeFta5AoEkwv5e_eqT4ekbhhiIL6xNelVyUd5YEkfapihB0LFxTpoJWBNZhjMg5tK9uGms3VXVYQdCddn_lkx3E9EM0541wBx6IE_0iO-5ptYjZ0i_AMALjjNDVBh_VntVdH5ZjQqUXuR-1FCto9vZdXiLesP-CzS742PWKU67D_E49oSAwDM21FFoZ2DOhmvFBOCmBj20hHVkHOuJVA1wwf7tWyUpr9HgPUgHD3K-kVNtJSqkD9oO-XN_UPugUv9fz0G00]--></g></svg>